<svg width="64" height="64" viewBox="0 0 64 64" fill="none" xmlns="http://www.w3.org/2000/svg">
<path d="M59 24.0701V22.0701C59.0007 21.6559 58.9177 21.2458 58.7562 20.8643C58.5947 20.4829 58.3579 20.1379 58.06 19.8501C57.759 19.5649 57.404 19.3428 57.0159 19.1968C56.6277 19.0509 56.2143 18.984 55.8 19.0001C52.1106 19.1 48.4338 19.4744 44.8 20.1201L43.48 20.3801C43.1966 17.5739 41.897 14.9681 39.8259 13.0534C37.7549 11.1387 35.0553 10.0472 32.2354 9.98455C29.4156 9.92186 26.6702 10.8923 24.5161 12.713C22.362 14.5338 20.9478 17.0792 20.54 19.8701C20.54 20.0501 20.54 20.2201 20.54 20.3901C16.473 19.5808 12.3451 19.1159 8.2 19.0001C7.78492 18.9881 7.37163 19.0593 6.98452 19.2096C6.59741 19.3599 6.24432 19.5862 5.94606 19.8751C5.64781 20.164 5.41044 20.5098 5.24796 20.8919C5.08547 21.274 5.00116 21.6849 5 22.1001V24.1001C3.87064 24.3306 2.8556 24.9443 2.12669 25.8372C1.39778 26.7301 0.999765 27.8475 1 29.0001V57.0001C1 58.3262 1.52678 59.598 2.46447 60.5357C2.92876 60.9999 3.47995 61.3682 4.08658 61.6195C4.69321 61.8708 5.34339 62.0001 6 62.0001H58C59.3261 62.0001 60.5979 61.4733 61.5355 60.5357C62.4732 59.598 63 58.3262 63 57.0001V29.0001C63.0072 27.8423 62.6123 26.7179 61.8828 25.8188C61.1533 24.9197 60.1344 24.3017 59 24.0701ZM22.54 20.1501C22.858 18.0717 23.8489 16.1549 25.3607 14.6936C26.8726 13.2323 28.822 12.3072 30.91 12.0601C31.272 12.0203 31.6358 12.0003 32 12.0001C34.3496 11.9945 36.6171 12.8644 38.36 14.4401C39.4091 15.3777 40.2384 16.5353 40.7886 17.8303C41.3387 19.1253 41.5963 20.5258 41.5428 21.9319C41.4893 23.3379 41.1261 24.7148 40.4791 25.9642C39.8321 27.2137 38.9173 28.305 37.8 29.1601C36.9526 29.7883 36.2631 30.6051 35.7858 31.5458C35.3085 32.4865 35.0566 33.5253 35.05 34.5801C35.0474 34.9559 34.8969 35.3156 34.6312 35.5813C34.3655 35.847 34.0058 35.9975 33.63 36.0001H33V29.0001C33.0005 28.7665 32.9191 28.54 32.77 28.3601L29.13 24.0001H34.58L32.79 25.7901C32.6262 25.9814 32.5406 26.2275 32.5503 26.4792C32.56 26.7308 32.6643 26.9696 32.8424 27.1477C33.0205 27.3258 33.2593 27.4301 33.5109 27.4398C33.7626 27.4496 34.0087 27.3639 34.2 27.2001L37.7 23.7001C37.837 23.5603 37.93 23.3834 37.9675 23.1913C38.0049 22.9992 37.9852 22.8003 37.9106 22.6193C37.8361 22.4383 37.7101 22.2831 37.5482 22.1731C37.3863 22.063 37.1957 22.0029 37 22.0001H27C26.8098 21.9998 26.6235 22.0537 26.4629 22.1556C26.3023 22.2574 26.174 22.403 26.0932 22.5751C26.0124 22.7473 25.9823 22.9389 26.0065 23.1275C26.0308 23.3162 26.1083 23.494 26.23 23.6401L31 29.3601V36.0001H30.37C30.1814 36.0001 29.9946 35.9628 29.8204 35.8903C29.6463 35.8178 29.4882 35.7116 29.3553 35.5778C29.2224 35.4439 29.1172 35.2851 29.046 35.1104C28.9747 34.9358 28.9387 34.7487 28.94 34.5601C28.9284 33.5066 28.6732 32.47 28.1944 31.5315C27.7156 30.5929 27.0262 29.7779 26.18 29.1501C24.8209 28.1152 23.7656 26.7333 23.1251 25.1496C22.4845 23.5659 22.2824 21.8389 22.54 20.1501ZM7 22.1001C7.00124 21.9518 7.03221 21.8052 7.09107 21.669C7.14993 21.5328 7.2355 21.4098 7.3427 21.3073C7.44991 21.2047 7.57659 21.1247 7.71525 21.0719C7.85391 21.0192 8.00174 20.9948 8.15 21.0001C12.2967 21.1153 16.4255 21.5905 20.49 22.4201C20.6048 24.047 21.0667 25.6304 21.8446 27.0638C22.6225 28.4972 23.6985 29.7473 25 30.7301C25.608 31.1715 26.1052 31.7482 26.4523 32.4146C26.7994 33.081 26.9869 33.8189 27 34.5701C26.9999 35.4695 27.353 36.333 27.9833 36.9745C28.6136 37.6161 29.4707 37.9844 30.37 38.0001H33.63C34.0826 37.9988 34.5305 37.9082 34.948 37.7335C35.3655 37.5588 35.7444 37.3034 36.0631 36.982C36.3817 36.6605 36.6338 36.2794 36.8049 35.8604C36.9759 35.4414 37.0626 34.9927 37.06 34.5401C37.0762 33.7951 37.2653 33.064 37.6124 32.4045C37.9595 31.7451 38.4551 31.1753 39.06 30.7401C40.3553 29.7515 41.4249 28.4981 42.1975 27.0634C42.97 25.6287 43.4277 24.0457 43.54 22.4201L45.2 22.0901C48.7182 21.4644 52.278 21.1001 55.85 21.0001C56 20.9924 56.15 21.017 56.2897 21.0722C56.4295 21.1274 56.5557 21.2119 56.66 21.3201C56.7655 21.4227 56.8491 21.5456 56.9058 21.6814C56.9625 21.8171 56.9912 21.963 56.99 22.1101V53.9001C56.9903 54.1834 56.8813 54.4559 56.6857 54.6608C56.4901 54.8657 56.223 54.9872 55.94 55.0001C48.0912 55.1051 40.3236 56.6051 33 59.4301V42.0001H34C34.2652 42.0001 34.5196 41.8948 34.7071 41.7072C34.8946 41.5197 35 41.2653 35 41.0001C35 40.7349 34.8946 40.4805 34.7071 40.293C34.5196 40.1055 34.2652 40.0001 34 40.0001H30C29.7348 40.0001 29.4804 40.1055 29.2929 40.293C29.1054 40.4805 29 40.7349 29 41.0001C29 41.2653 29.1054 41.5197 29.2929 41.7072C29.4804 41.8948 29.7348 42.0001 30 42.0001H31V59.4401C23.6783 56.6076 15.9099 55.104 8.06 55.0001C7.77525 54.9898 7.50563 54.8693 7.30791 54.6641C7.1102 54.459 6.99981 54.1851 7 53.9001V22.1001ZM3 57.0001V29.0001C3.00174 28.3812 3.19488 27.7779 3.55294 27.2731C3.911 26.7682 4.41645 26.3864 5 26.1801V53.9001C5.00456 54.7038 5.31904 55.4746 5.87791 56.0521C6.43679 56.6296 7.19695 56.9692 8 57.0001C14.2782 57.149 20.5062 58.1584 26.51 60.0001H6C5.20435 60.0001 4.44129 59.684 3.87868 59.1214C3.31607 58.5588 3 57.7958 3 57.0001ZM61 57.0001C61 57.7958 60.6839 58.5588 60.1213 59.1214C59.5587 59.684 58.7957 60.0001 58 60.0001H37.48C43.487 58.1575 49.7185 57.1481 56 57.0001C56.8031 56.9692 57.5632 56.6296 58.1221 56.0521C58.681 55.4746 58.9954 54.7038 59 53.9001V26.1501C59.5884 26.3581 60.0973 26.7445 60.4557 27.2553C60.8142 27.7661 61.0045 28.3761 61 29.0001V57.0001Z" fill="black"/>
<path d="M10.93 26.9999C12.25 27.0899 13.58 27.2099 14.88 27.3699H15C15.2653 27.3858 15.5259 27.2957 15.7247 27.1194C15.9235 26.9432 16.0441 26.6951 16.06 26.4299C16.076 26.1647 15.9859 25.904 15.8096 25.7052C15.6333 25.5064 15.3853 25.3858 15.12 25.3699C13.79 25.2099 12.42 25.0799 11.07 24.9899C10.8048 24.9727 10.5436 25.0615 10.3439 25.2368C10.1442 25.4122 10.0223 25.6597 10.005 25.9249C9.9878 26.1901 10.0766 26.4513 10.252 26.651C10.4273 26.8508 10.6748 26.9727 10.94 26.9899L10.93 26.9999Z" fill="black"/>
<path d="M10.93 31.13C13.3696 31.2892 15.7994 31.5729 18.21 31.98H18.38C18.5114 31.9912 18.6436 31.9764 18.7692 31.9364C18.8948 31.8965 19.0113 31.8322 19.112 31.7472C19.2128 31.6623 19.2958 31.5583 19.3564 31.4412C19.417 31.3242 19.4539 31.1963 19.465 31.065C19.4762 30.9337 19.4614 30.8015 19.4214 30.6759C19.3815 30.5503 19.3172 30.4338 19.2323 30.333C19.1473 30.2323 19.0433 30.1492 18.9263 30.0887C18.8092 30.0281 18.6814 29.9912 18.55 29.98C16.0733 29.5598 13.5767 29.2661 11.07 29.1C10.8048 29.0828 10.5436 29.1716 10.3439 29.3469C10.1442 29.5223 10.0223 29.7698 10.005 30.035C9.9878 30.3002 10.0766 30.5614 10.252 30.7612C10.4273 30.9609 10.6748 31.0828 10.94 31.1L10.93 31.13Z" fill="black"/>
<path d="M9.99999 37.0699C9.98353 37.3337 10.0721 37.5932 10.2464 37.7918C10.4206 37.9904 10.6664 38.112 10.93 38.1299C16.2786 38.4576 21.5692 39.4211 26.69 40.9999C26.9433 41.0795 27.2178 41.0552 27.4531 40.9324C27.6885 40.8095 27.8654 40.5982 27.945 40.3449C28.0246 40.0917 28.0002 39.8171 27.8774 39.5818C27.7546 39.3464 27.5433 39.1695 27.29 39.0899C22.0182 37.4497 16.5698 36.4426 11.06 36.0899C10.9254 36.0818 10.7905 36.101 10.6635 36.1464C10.5365 36.1917 10.42 36.2623 10.321 36.3539C10.2219 36.4454 10.1425 36.556 10.0873 36.6791C10.0321 36.8022 10.0024 36.9351 9.99999 37.0699Z" fill="black"/>
<path d="M27.3 43.9999C22.0282 42.3597 16.5799 41.3526 11.07 40.9999C10.9387 40.9914 10.807 41.0088 10.6824 41.0512C10.5578 41.0935 10.4428 41.16 10.3439 41.2468C10.1442 41.4222 10.0223 41.6697 10.005 41.9349C9.9878 42.2001 10.0766 42.4613 10.252 42.6611C10.4273 42.8608 10.6748 42.9827 10.94 42.9999C16.2891 43.331 21.5796 44.2978 26.7 45.8799C26.9346 45.9143 27.1737 45.8643 27.3748 45.7388C27.5759 45.6133 27.7258 45.4204 27.7979 45.1946C27.87 44.9687 27.8595 44.7246 27.7683 44.5058C27.6771 44.287 27.5112 44.1077 27.3 43.9999Z" fill="black"/>
<path d="M27.3 48.9999C22.0282 47.3596 16.5799 46.3525 11.07 45.9999C10.8048 45.9827 10.5436 46.0715 10.3439 46.2468C10.1442 46.4222 10.0223 46.6697 10.005 46.9349C9.9878 47.2001 10.0766 47.4613 10.252 47.6611C10.4273 47.8608 10.6748 47.9827 10.94 47.9999C16.2906 48.3706 21.5779 49.3777 26.69 50.9999C26.9553 51.0808 27.2417 51.053 27.4865 50.9227C27.7312 50.7924 27.9142 50.5701 27.995 50.3049C28.0759 50.0397 28.0482 49.7532 27.9178 49.5085C27.7875 49.2637 27.5653 49.0808 27.3 48.9999Z" fill="black"/>
<path d="M37.0001 41.0601C37.0995 41.0752 37.2006 41.0752 37.3001 41.0601C42.4204 39.4779 47.711 38.511 53.0601 38.1801C53.3253 38.1629 53.5728 38.041 53.7481 37.8412C53.9235 37.6415 54.0123 37.3803 53.9951 37.1151C53.9778 36.8499 53.8559 36.6024 53.6562 36.427C53.4565 36.2517 53.1953 36.1629 52.9301 36.1801C47.4202 36.5327 41.9719 37.5398 36.7001 39.1801C36.5687 39.1998 36.4426 39.2452 36.3288 39.3136C36.215 39.3821 36.1158 39.4723 36.0369 39.5791C35.8775 39.7947 35.8103 40.0649 35.8501 40.3301C35.8898 40.5953 36.0334 40.8339 36.249 40.9933C36.4647 41.1527 36.7348 41.2199 37.0001 41.1801V41.0601Z" fill="black"/>
<path d="M37.0001 45.9299C37.0995 45.945 37.2006 45.945 37.3001 45.9299C42.4184 44.3308 47.709 43.3472 53.0601 42.9999C53.1914 42.9914 53.3197 42.9571 53.4378 42.8989C53.5559 42.8408 53.6613 42.76 53.7481 42.6611C53.835 42.5622 53.9014 42.4471 53.9438 42.3225C53.9862 42.198 54.0036 42.0662 53.9951 41.9349C53.9865 41.8036 53.9522 41.6752 53.8941 41.5572C53.8359 41.4391 53.7551 41.3337 53.6562 41.2468C53.5573 41.16 53.4423 41.0935 53.3177 41.0512C53.1931 41.0088 53.0614 40.9914 52.9301 40.9999C47.4202 41.3526 41.9719 42.3597 36.7001 43.9999C36.4348 44.0397 36.1963 44.1832 36.0369 44.3989C35.8775 44.6145 35.8103 44.8847 35.8501 45.1499C35.8898 45.4151 36.0334 45.6537 36.249 45.8131C36.4647 45.9725 36.7348 46.0397 37.0001 45.9999V45.9299Z" fill="black"/>
<path d="M37.0001 51C37.0995 51.0151 37.2006 51.0151 37.3001 51C42.4204 49.4178 47.711 48.451 53.0601 48.12C53.3253 48.1028 53.5728 47.9809 53.7481 47.7812C53.9235 47.5814 54.0123 47.3202 53.9951 47.055C53.9778 46.7898 53.8559 46.5423 53.6562 46.367C53.4565 46.1916 53.1953 46.1028 52.9301 46.12C47.4251 46.4337 41.9769 47.4004 36.7001 49C36.4348 49.0398 36.1963 49.1833 36.0369 49.399C35.8775 49.6147 35.8103 49.8848 35.8501 50.15C35.8898 50.4153 36.0334 50.6538 36.249 50.8132C36.4647 50.9726 36.7348 51.0398 37.0001 51Z" fill="black"/>
<path d="M32 7C32.2652 7 32.5196 6.89464 32.7071 6.70711C32.8946 6.51957 33 6.26522 33 6V2C33 1.73478 32.8946 1.48043 32.7071 1.29289C32.5196 1.10536 32.2652 1 32 1C31.7348 1 31.4804 1.10536 31.2929 1.29289C31.1054 1.48043 31 1.73478 31 2V6C31 6.26522 31.1054 6.51957 31.2929 6.70711C31.4804 6.89464 31.7348 7 32 7Z" fill="black"/>
<path d="M39.0698 9.92988C39.2014 9.93064 39.3318 9.90542 39.4537 9.85565C39.5755 9.80589 39.6863 9.73256 39.7798 9.63988L42.6098 6.80988C42.7736 6.61858 42.8592 6.3725 42.8495 6.12083C42.8398 5.86915 42.7354 5.63041 42.5573 5.45232C42.3792 5.27422 42.1405 5.16989 41.8888 5.16017C41.6372 5.15045 41.3911 5.23605 41.1998 5.39988L38.3598 8.21988C38.2188 8.35975 38.1226 8.53845 38.0835 8.7332C38.0444 8.92795 38.0642 9.12992 38.1404 9.31336C38.2166 9.49681 38.3456 9.65341 38.5112 9.76321C38.6767 9.87301 38.8712 9.93104 39.0698 9.92988Z" fill="black"/>
<path d="M24.2201 9.64012C24.4114 9.80394 24.6575 9.88955 24.9092 9.87983C25.1609 9.87011 25.3996 9.76577 25.5777 9.58768C25.7558 9.40958 25.8601 9.17084 25.8698 8.91917C25.8796 8.66749 25.794 8.42142 25.6301 8.23011L22.8101 5.39012C22.6188 5.22629 22.3727 5.14068 22.1211 5.1504C21.8694 5.16013 21.6307 5.26446 21.4526 5.44255C21.2745 5.62065 21.1701 5.85939 21.1604 6.11106C21.1507 6.36274 21.2363 6.60881 21.4001 6.80012L24.2201 9.64012Z" fill="black"/>
</svg>
