<svg width="64" height="64" viewBox="0 0 64 64" fill="none" xmlns="http://www.w3.org/2000/svg">
<path d="M59.9411 27.8312C60.3548 27.8312 60.6911 27.495 60.6911 27.0812V18.9725C60.6911 18.5588 60.3548 18.2225 59.9411 18.2225H50.0973V11.5638C50.0973 11.15 49.7611 10.8138 49.3473 10.8138H37.7836V10.4688C37.7836 10.0938 37.5061 9.77625 37.1348 9.725L34.8948 9.42125C34.7348 8.8675 34.5148 8.335 34.2348 7.82875L35.6048 6.02875C35.8323 5.73 35.8036 5.31 35.5386 5.04375L33.9898 3.495C33.7248 3.23 33.3036 3.20125 33.0048 3.42875L31.2048 4.79875C30.6998 4.51875 30.1673 4.29875 29.6123 4.13875L29.3086 1.89875C29.2586 1.52625 28.9411 1.25 28.5648 1.25H26.3736C25.9986 1.25 25.6811 1.5275 25.6298 1.89875L25.3261 4.13875C24.7723 4.29875 24.2398 4.51875 23.7336 4.79875L21.9348 3.42875C21.6361 3.20125 21.2161 3.23 20.9498 3.495L19.4011 5.04375C19.1361 5.30875 19.1073 5.73 19.3348 6.02875L20.7048 7.8275C20.4248 8.3325 20.2048 8.865 20.0448 9.42L17.8048 9.72375C17.4336 9.77375 17.1561 10.0913 17.1561 10.4663V10.8112H10.9911C10.7923 10.8112 10.6011 10.89 10.4611 11.0312L3.52859 17.9638C3.38859 18.105 3.30859 18.295 3.30859 18.4937V45.6975C3.30859 46.1112 3.64484 46.4475 4.05859 46.4475H15.0148V57.9437C15.0148 58.3575 15.3511 58.6937 15.7648 58.6937H38.0036V61.9987C38.0036 62.4125 38.3398 62.7487 38.7536 62.7487H59.9411C60.3548 62.7487 60.6911 62.4125 60.6911 61.9987V53.89C60.6911 53.4762 60.3548 53.14 59.9411 53.14H50.0973V50.8462H59.9411C60.3548 50.8462 60.6911 50.51 60.6911 50.0962V41.9875C60.6911 41.5737 60.3548 41.2375 59.9411 41.2375H50.0973V39.5588H59.9411C60.3548 39.5588 60.6911 39.2225 60.6911 38.8088V30.7C60.6911 30.2863 60.3548 29.95 59.9411 29.95H50.0973V27.83H59.9411V27.8312ZM59.1911 26.3312H39.5036V19.7225H59.1911V26.3312ZM18.6561 11.1237L20.7498 10.84C21.0636 10.7975 21.3161 10.5625 21.3823 10.2537C21.5398 9.5175 21.8286 8.82125 22.2398 8.18625C22.4111 7.92125 22.3986 7.57625 22.2073 7.325L20.9273 5.6425L21.5498 5.02L23.2323 6.3C23.4836 6.49125 23.8286 6.505 24.0936 6.3325C24.7286 5.92125 25.4236 5.63375 26.1611 5.47625C26.4698 5.41 26.7048 5.1575 26.7473 4.84375L27.0311 2.75H27.9111L28.1948 4.84375C28.2373 5.1575 28.4723 5.41 28.7811 5.47625C29.5186 5.63375 30.2136 5.9225 30.8486 6.3325C31.1136 6.50375 31.4586 6.49125 31.7098 6.3L33.3923 5.02L34.0148 5.6425L32.7348 7.325C32.5436 7.57625 32.5298 7.92125 32.7023 8.1875C33.1136 8.8225 33.4011 9.5175 33.5598 10.255C33.6261 10.5638 33.8786 10.7988 34.1923 10.8413L36.2861 11.125V12.005L34.1923 12.2887C33.8786 12.3312 33.6261 12.5662 33.5598 12.875C33.4023 13.6125 33.1136 14.3075 32.7036 14.9425C32.5323 15.2075 32.5448 15.5525 32.7361 15.805L34.0161 17.4862L33.3936 18.1087L31.7123 16.8288C31.4611 16.6375 31.1161 16.6237 30.8511 16.7962C30.2161 17.2075 29.5211 17.495 28.7836 17.6537C28.4748 17.72 28.2398 17.9725 28.1973 18.2862L27.9136 20.38H27.0336L26.7498 18.2862C26.7073 17.9725 26.4723 17.72 26.1636 17.6537C25.4261 17.4963 24.7311 17.2075 24.0961 16.7975C23.8311 16.625 23.4861 16.6388 23.2348 16.83L21.5523 18.11L20.9298 17.4875L22.2098 15.805C22.4011 15.5538 22.4148 15.2088 22.2423 14.9438C21.8311 14.3088 21.5436 13.6138 21.3848 12.8763C21.3186 12.5675 21.0661 12.3325 20.7523 12.29L18.6586 12.0063V11.1263L18.6561 11.1237ZM27.4698 38.6838C31.3373 38.6838 34.4848 41.8312 34.4848 45.6987C34.4848 49.5662 31.3373 52.7137 27.4698 52.7137C23.6023 52.7137 20.4548 49.5662 20.4548 45.6987C20.4548 41.8312 23.6023 38.6838 27.4698 38.6838ZM4.80859 18.8062L11.3011 12.3138H17.1561V12.6587C17.1561 13.0337 17.4336 13.3512 17.8048 13.4025L20.0448 13.7063C20.2048 14.26 20.4248 14.7925 20.7048 15.2987L19.3348 17.0975C19.1073 17.3962 19.1361 17.8162 19.4011 18.0825L20.9498 19.6313C21.2148 19.8962 21.6361 19.925 21.9348 19.6975L23.7336 18.3275C24.2386 18.6075 24.7711 18.8275 25.3261 18.9875L25.6298 21.2275C25.6798 21.6 25.9973 21.8762 26.3736 21.8762H26.7186V37.2175C22.6211 37.5775 19.3473 40.85 18.9886 44.9475H4.80859V18.8062ZM59.1911 61.25H39.5036V54.6413H59.1911V61.25ZM59.1911 49.3475H39.5036V42.7388H59.1911V49.3475ZM59.1911 38.06H39.5036V31.4513H59.1911V38.06ZM48.5973 29.9513H38.7536C38.3398 29.9513 38.0036 30.2875 38.0036 30.7013V38.81C38.0036 39.2238 38.3398 39.56 38.7536 39.56H48.5973V41.2388H38.7536C38.3398 41.2388 38.0036 41.575 38.0036 41.9888V50.0975C38.0036 50.5112 38.3398 50.8475 38.7536 50.8475H48.5973V53.1413H38.7536C38.3398 53.1413 38.0036 53.4775 38.0036 53.8913V57.1963H16.5148V46.45H18.9898C19.3711 50.795 23.0273 54.215 27.4698 54.215C32.1648 54.215 35.9848 50.395 35.9848 45.7C35.9848 41.2575 32.5648 37.6012 28.2198 37.22V21.8787H28.5648C28.9398 21.8787 29.2573 21.6012 29.3086 21.23L29.6123 18.99C30.1661 18.83 30.6986 18.61 31.2048 18.33L33.0036 19.7C33.3023 19.9275 33.7223 19.8988 33.9886 19.6338L35.5373 18.085C35.8023 17.82 35.8311 17.3988 35.6036 17.1L34.2336 15.3013C34.5136 14.7963 34.7336 14.2638 34.8936 13.7087L37.1336 13.405C37.5061 13.355 37.7823 13.0375 37.7823 12.6613V12.3162H48.5961V18.225H38.7523C38.3386 18.225 38.0023 18.5613 38.0023 18.975V27.0837C38.0023 27.4975 38.3386 27.8337 38.7523 27.8337H48.5961V29.9538L48.5973 29.9513ZM43.0698 22.2775H55.6248C56.0386 22.2775 56.3748 22.6138 56.3748 23.0275C56.3748 23.4412 56.0386 23.7775 55.6248 23.7775H43.0698C42.6561 23.7775 42.3198 23.4412 42.3198 23.0275C42.3198 22.6138 42.6561 22.2775 43.0698 22.2775ZM43.0698 45.2938H55.6248C56.0386 45.2938 56.3748 45.63 56.3748 46.0438C56.3748 46.4575 56.0386 46.7938 55.6248 46.7938H43.0698C42.6561 46.7938 42.3198 46.4575 42.3198 46.0438C42.3198 45.63 42.6561 45.2938 43.0698 45.2938ZM43.0698 57.1963H55.6248C56.0386 57.1963 56.3748 57.5325 56.3748 57.9463C56.3748 58.36 56.0386 58.6963 55.6248 58.6963H43.0698C42.6561 58.6963 42.3198 58.36 42.3198 57.9463C42.3198 57.5325 42.6561 57.1963 43.0698 57.1963ZM43.0698 34.005H55.6248C56.0386 34.005 56.3748 34.3413 56.3748 34.755C56.3748 35.1688 56.0386 35.505 55.6248 35.505H43.0698C42.6561 35.505 42.3198 35.1688 42.3198 34.755C42.3198 34.3413 42.6561 34.005 43.0698 34.005ZM9.16109 18.9713C9.16109 18.5575 9.49734 18.2213 9.91109 18.2213H15.7636C16.1773 18.2213 16.5136 18.5575 16.5136 18.9713C16.5136 19.385 16.1773 19.7213 15.7636 19.7213H9.91109C9.49734 19.7213 9.16109 19.385 9.16109 18.9713ZM9.16109 23.0263C9.16109 22.6125 9.49734 22.2763 9.91109 22.2763H21.6161C22.0298 22.2763 22.3661 22.6125 22.3661 23.0263C22.3661 23.44 22.0298 23.7763 21.6161 23.7763H9.91109C9.49734 23.7763 9.16109 23.44 9.16109 23.0263ZM9.16109 27.0812C9.16109 26.6675 9.49734 26.3312 9.91109 26.3312H21.6161C22.0298 26.3312 22.3661 26.6675 22.3661 27.0812C22.3661 27.495 22.0298 27.8312 21.6161 27.8312H9.91109C9.49734 27.8312 9.16109 27.495 9.16109 27.0812ZM9.16109 31.1362C9.16109 30.7225 9.49734 30.3862 9.91109 30.3862H21.6161C22.0298 30.3862 22.3661 30.7225 22.3661 31.1362C22.3661 31.55 22.0298 31.8862 21.6161 31.8862H9.91109C9.49734 31.8862 9.16109 31.55 9.16109 31.1362ZM9.16109 35.1912C9.16109 34.7775 9.49734 34.4412 9.91109 34.4412H21.6161C22.0298 34.4412 22.3661 34.7775 22.3661 35.1912C22.3661 35.605 22.0298 35.9412 21.6161 35.9412H9.91109C9.49734 35.9412 9.16109 35.605 9.16109 35.1912ZM15.7636 39.9963H9.91109C9.49734 39.9963 9.16109 39.66 9.16109 39.2463C9.16109 38.8325 9.49734 38.4963 9.91109 38.4963H15.7636C16.1773 38.4963 16.5136 38.8325 16.5136 39.2463C16.5136 39.66 16.1773 39.9963 15.7636 39.9963ZM27.4698 15.9263C29.8748 15.9263 31.8323 13.9688 31.8323 11.5638C31.8323 9.15875 29.8748 7.20125 27.4698 7.20125C25.0648 7.20125 23.1073 9.15875 23.1073 11.5638C23.1073 13.9688 25.0648 15.9263 27.4698 15.9263ZM27.4698 8.70125C29.0486 8.70125 30.3323 9.985 30.3323 11.5638C30.3323 13.1425 29.0486 14.4263 27.4698 14.4263C25.8911 14.4263 24.6073 13.1425 24.6073 11.5638C24.6073 9.985 25.8911 8.70125 27.4698 8.70125Z" fill="black"/>
</svg>
