<svg width="54" height="54" viewBox="0 0 54 54" fill="none" xmlns="http://www.w3.org/2000/svg">
<g clip-path="url(#clip0_655_44)">
<path d="M54 13.8813C54 12.9614 53.5296 12.1493 52.8167 11.673C53.1111 11.2548 53.2883 10.7492 53.2984 10.2053C53.3116 9.50136 53.0419 8.83174 52.5392 8.31937C52.0285 7.79899 51.3201 7.50051 50.5958 7.50051H49.4093V2.25745C49.4093 1.82049 49.0551 1.46643 48.6182 1.46643C48.1814 1.46643 47.8272 1.82049 47.8272 2.25745V7.50051H38.2626V2.25745C38.2626 1.82049 37.9084 1.46643 37.4716 1.46643C37.0347 1.46643 36.6806 1.82049 36.6806 2.25745V3.39851L32.8898 4.15346C31.9642 4.33782 31.1895 4.96578 30.8178 5.83326L30.1032 7.50051H26.7113C26.2745 7.50051 25.9203 7.85457 25.9203 8.29152C25.9203 8.72848 26.2745 9.08254 26.7113 9.08254H30.6248C30.9412 9.08254 31.2271 8.89396 31.3519 8.60318L32.272 6.45647C32.4383 6.06845 32.7849 5.78749 33.1989 5.70501L36.6807 5.01155V7.50051H35.5723C35.1354 7.50051 34.7813 7.85457 34.7813 8.29152C34.7813 8.72848 35.1354 9.08254 35.5723 9.08254H50.5959C50.8983 9.08254 51.1951 9.20815 51.4101 9.42753C51.613 9.63425 51.7219 9.89992 51.7167 10.1756C51.7058 10.7554 51.2249 11.2271 50.6446 11.2271C50.5905 11.2271 39.892 11.227 39.892 11.227C39.4551 11.227 39.101 11.5811 39.101 12.0181C39.101 12.455 39.4551 12.8091 39.892 12.8091L51.3457 12.8092C51.9368 12.8092 52.4179 13.2902 52.4179 13.8814C52.4179 14.4725 51.9368 14.9536 51.3457 14.9536L39.892 14.9535C39.4551 14.9535 39.101 15.3075 39.101 15.7445C39.101 16.1814 39.4551 16.5355 39.892 16.5355C39.892 16.5355 49.8893 16.5356 49.9436 16.5356C50.5238 16.5356 51.0047 17.0073 51.0156 17.587C51.0207 17.8627 50.9119 18.1284 50.709 18.3351C50.4938 18.5543 50.197 18.6801 49.8947 18.6801H39.892C39.4551 18.6801 39.101 19.0341 39.101 19.4711C39.101 19.9081 39.4551 20.2621 39.892 20.2621H47.8404C48.4206 20.2621 48.9015 20.7338 48.9124 21.3135C48.9176 21.5892 48.8087 21.8549 48.6058 22.0617C48.3906 22.2809 48.094 22.4066 47.7916 22.4066H33.4238C32.7564 22.4066 32.0996 22.1798 31.5745 21.7677L29.6281 20.2406C28.3186 19.2133 26.681 18.6476 25.0166 18.6476H17.3195V9.08254H23.232C23.6689 9.08254 24.023 8.72848 24.023 8.29152C24.023 7.85457 23.6689 7.50051 23.232 7.50051H17.3195V6.31399C17.3195 5.58963 17.0211 4.8813 16.5008 4.37062C15.9885 3.86774 15.3181 3.59954 14.6149 3.61135C14.071 3.62158 13.5654 3.79877 13.1472 4.09302C12.6708 3.38016 11.8588 2.90977 10.9389 2.90977C9.80585 2.90977 8.83628 3.62348 8.45617 4.6248C8.09852 4.43284 7.69268 4.32042 7.26289 4.3124C6.55878 4.30238 5.88948 4.5689 5.37711 5.07146C4.94343 5.49702 4.66393 6.05981 4.58272 6.65486C4.26231 6.50763 3.90836 6.42251 3.53637 6.41545C2.83152 6.40226 2.16295 6.67195 1.65059 7.17472C1.1302 7.6854 0.831727 8.39383 0.831727 9.11819V16.6413C0.831727 17.0782 1.18589 17.4323 1.62274 17.4323C2.05959 17.4323 2.41376 17.0782 2.41376 16.6413V9.11819C2.41376 8.81581 2.53948 8.51892 2.75875 8.30376C2.96546 8.10094 3.23336 7.98893 3.50673 7.99727C4.0866 8.00823 4.55825 8.48907 4.55825 9.06925V17.0177C4.55825 17.4546 4.91242 17.8087 5.34927 17.8087C5.78612 17.8087 6.14029 17.4546 6.14029 17.0177V7.01514C6.14029 6.71276 6.266 6.41587 6.48527 6.20071C6.69199 5.9979 6.95672 5.89127 7.23336 5.89433C7.81313 5.90519 8.28478 6.38602 8.28478 6.9662V17.0179C8.28478 17.4549 8.63895 17.8089 9.0758 17.8089C9.51265 17.8089 9.86681 17.4549 9.86681 17.0179V5.5641C9.86681 4.97295 10.3479 4.49191 10.9391 4.49191C11.5303 4.49191 12.0113 4.97295 12.0113 5.5641V17.0179C12.0113 17.4549 12.3655 17.8089 12.8023 17.8089C13.2392 17.8089 13.5933 17.4549 13.5933 17.0179C13.5933 17.0179 13.5933 6.31947 13.5933 6.26526C13.5933 5.68497 14.065 5.20403 14.6448 5.19327C14.9215 5.18779 15.1862 5.29684 15.3928 5.49977C15.612 5.71492 15.7377 6.01171 15.7377 6.31409V22.0246C15.7377 22.4616 16.0919 22.8156 16.5287 22.8156C16.9656 22.8156 17.3198 22.4616 17.3198 22.0246V20.2294H19.8086L19.1152 23.7112C19.0327 24.1253 18.7517 24.4718 18.3637 24.6381L16.2171 25.5582C15.9262 25.6829 15.7377 25.9689 15.7377 26.2853V30.0119C15.7377 30.0119 6.02575 30.0167 5.93504 30.0261C5.67749 29.0309 5.21575 28.0923 4.57998 27.282L3.0529 25.3356C2.64094 24.8105 2.41397 24.1538 2.41397 23.4864V20.1212C2.41397 19.6843 2.0598 19.3302 1.62295 19.3302C1.1861 19.3302 0.831937 19.6843 0.831937 20.1212V23.4864C0.831937 24.5063 1.17861 25.5098 1.80816 26.3122L3.33524 28.2587C3.88547 28.9599 4.26874 29.7836 4.45658 30.6541C4.39024 30.7098 4.32622 30.7685 4.26526 30.8306C3.76239 31.3429 3.49281 32.0126 3.50599 32.7165C3.51295 33.0884 3.59796 33.4424 3.7452 33.7628C3.15025 33.844 2.58757 34.1235 2.162 34.557C1.65913 35.0693 1.38955 35.739 1.40273 36.4429C1.41075 36.8723 1.52286 37.2777 1.7145 37.6353C1.36698 37.7666 1.04815 37.9715 0.777516 38.2422C0.276117 38.7433 0 39.4098 0 40.1188C0 41.0387 0.470391 41.8508 1.18325 42.3271C0.888996 42.7453 0.711703 43.2508 0.701578 43.7947C0.688395 44.4986 0.958078 45.1683 1.46085 45.6807C1.97153 46.2011 2.67986 46.4995 3.40411 46.4995H4.59063V51.7425C4.59063 52.1795 4.9448 52.5336 5.38165 52.5336C5.8185 52.5336 6.17266 52.1795 6.17266 51.7425V46.4995H15.7373V51.7425C15.7373 52.1795 16.0915 52.5336 16.5283 52.5336C16.9652 52.5336 17.3193 52.1795 17.3193 51.7425V50.6015L21.11 49.8465C22.0357 49.6622 22.8104 49.0342 23.1821 48.1667L23.8967 46.4995H36.6805V47.686C36.6805 48.4104 36.9789 49.1187 37.4992 49.6294C38.0115 50.1322 38.6835 50.4031 39.3851 50.3886C39.929 50.3784 40.4346 50.2012 40.8528 49.907C41.3292 50.6198 42.1412 51.0902 43.0611 51.0902C44.1941 51.0902 45.1637 50.3765 45.5438 49.3752C45.9015 49.5671 46.3073 49.6796 46.7371 49.6876C47.4411 49.7 48.1105 49.4312 48.6229 48.9285C49.0566 48.503 49.3361 47.9402 49.4173 47.3451C49.7377 47.4924 50.0916 47.5775 50.4636 47.5845C51.1684 47.5971 51.8372 47.328 52.3494 46.8253C52.8698 46.3146 53.1683 45.6062 53.1683 44.8818V30.5138C53.1683 29.4939 52.8216 28.4904 52.1921 27.688L50.665 25.7415C50.1147 25.0403 49.7315 24.2166 49.5436 23.3462C49.61 23.2906 49.6739 23.2318 49.735 23.1697C50.2378 22.6573 50.5074 21.9876 50.4942 21.2837C50.4873 20.9118 50.4023 20.5578 50.255 20.2374C50.85 20.1562 51.4126 19.8767 51.8382 19.4432C52.3411 18.9309 52.6107 18.2612 52.5975 17.5573C52.5895 17.1275 52.477 16.7216 52.2851 16.364C53.2864 15.9839 54 15.0143 54 13.8813ZM17.3194 26.8067L18.9866 26.0921C19.8541 25.7204 20.482 24.9458 20.6665 24.0201L21.4214 20.2294H25.0166C26.3285 20.2294 27.6194 20.6755 28.6515 21.485L30.598 23.0121C31.4004 23.6418 32.404 23.9884 33.4238 23.9884H36.6806V27.1933L35.0134 27.908C34.1459 28.2796 33.518 29.0543 33.3335 29.98L32.5786 33.7707H28.9834C27.6716 33.7707 26.3807 33.3246 25.3485 32.515L23.402 30.9879C22.5996 30.3582 21.596 30.0115 20.5762 30.0115H17.3194V26.8067ZM49.4203 26.7182L50.9474 28.6646C51.3594 29.1897 51.5863 29.8464 51.5863 30.5138V44.8817C51.5863 45.1841 51.4606 45.481 51.2414 45.6961C51.0346 45.8989 50.7681 46.0068 50.4934 46.0026C49.9135 45.9916 49.4419 45.5108 49.4419 44.9306C49.4419 44.8764 49.4419 36.9822 49.4419 36.9822C49.4419 36.5452 49.0877 36.1912 48.6508 36.1912C48.214 36.1912 47.8598 36.5452 47.8598 36.9822V46.985C47.8598 47.2873 47.7341 47.5842 47.5148 47.7994C47.3082 48.0022 47.0426 48.1143 46.7667 48.1058C46.187 48.0949 45.7153 47.6141 45.7153 47.0339C45.7153 46.9797 45.7153 36.9822 45.7153 36.9822C45.7153 36.5452 45.3612 36.1912 44.9243 36.1912C44.4875 36.1912 44.1333 36.5452 44.1333 36.9822V48.436C44.1333 49.0271 43.6523 49.5082 43.061 49.5082C42.4698 49.5082 41.9888 49.0271 41.9888 48.436V36.9822C41.9888 36.5452 41.6346 36.1912 41.1978 36.1912C40.7609 36.1912 40.4068 36.5452 40.4068 36.9822V47.7348C40.4068 48.3151 39.9351 48.7961 39.3553 48.8068C39.08 48.8116 38.814 48.7031 38.6073 48.5003C38.3881 48.2852 38.2624 47.9884 38.2624 47.686V40.6087C38.2624 40.1718 37.9082 39.8177 37.4714 39.8177C37.0345 39.8177 36.6803 40.1718 36.6803 40.6087V44.9174H23.3752C23.0588 44.9174 22.7729 45.106 22.6481 45.3968L21.728 47.5435C21.5617 47.9315 21.2151 48.2125 20.801 48.295L17.3192 48.9884V46.4995H18.2597C18.6966 46.4995 19.0507 46.1454 19.0507 45.7085C19.0507 45.2715 18.6966 44.9174 18.2597 44.9174H3.40411C3.10173 44.9174 2.80505 44.7918 2.58989 44.5726C2.38697 44.3657 2.27813 44.1002 2.28329 43.8244C2.29416 43.2446 2.77509 42.7729 3.35528 42.7729H14.1079C14.5448 42.7729 14.8989 42.4189 14.8989 41.9819C14.8989 41.545 14.5448 41.1909 14.1079 41.1909H2.65423C2.06307 41.1909 1.58203 40.7099 1.58203 40.1187C1.58203 39.8323 1.69362 39.563 1.89612 39.3605C2.09862 39.1581 2.36777 39.0465 2.65423 39.0465H14.108C14.5449 39.0465 14.899 38.6925 14.899 38.2555C14.899 37.8186 14.5449 37.4645 14.108 37.4645C14.108 37.4645 4.11064 37.4645 4.05643 37.4645C3.47625 37.4645 2.99531 36.9927 2.98445 36.413C2.97928 36.1373 3.08812 35.8716 3.29105 35.6649C3.5062 35.4457 3.80299 35.3199 4.10527 35.3199H14.108C14.5449 35.3199 14.899 34.9658 14.899 34.5289C14.899 34.0919 14.5449 33.7379 14.108 33.7379C14.108 33.7379 6.2138 33.7379 6.15959 33.7379C5.5794 33.7379 5.09846 33.2662 5.0876 32.6864C5.08243 32.4107 5.19128 32.1451 5.3942 31.9384C5.60936 31.7191 5.90614 31.5934 6.20842 31.5934H20.5763C21.2437 31.5934 21.9005 31.8202 22.4256 32.2323L24.372 33.7594C25.6815 34.7868 27.3193 35.3525 28.9836 35.3525H36.6807V37.129C36.6807 37.566 37.0348 37.92 37.4717 37.92C37.9085 37.92 38.2627 37.566 38.2627 37.129V31.9753C38.2627 31.5383 37.9085 31.1843 37.4717 31.1843C37.0348 31.1843 36.6807 31.5383 36.6807 31.9753V33.7705H34.1918L34.8853 30.2887C34.9677 29.8745 35.2487 29.5281 35.6368 29.3618L37.7834 28.4415C38.0742 28.3168 38.2628 28.0308 38.2628 27.7144V23.988C38.2628 23.988 47.9748 23.9832 48.0655 23.9738C48.3228 24.9693 48.7847 25.9079 49.4203 26.7182Z" fill="black"/>
</g>
<defs>
<clipPath id="clip0_655_44">
<rect width="54" height="54" fill="white"/>
</clipPath>
</defs>
</svg>
