<svg width="304" height="172" viewBox="0 0 304 172" fill="none" xmlns="http://www.w3.org/2000/svg">
<g filter="url(#filter0_d_649_55)">
<rect x="20" y="18" width="244" height="112" rx="11" fill="white"/>
</g>
<path d="M100.384 55.88V57.368H97.424V67H95.6V57.368H92.624V55.88H100.384ZM106.055 67.144C105.223 67.144 104.471 66.9573 103.799 66.584C103.127 66.2 102.599 65.6667 102.215 64.984C101.831 64.2907 101.639 63.4907 101.639 62.584C101.639 61.688 101.837 60.8933 102.231 60.2C102.626 59.5067 103.165 58.9733 103.847 58.6C104.53 58.2267 105.293 58.04 106.135 58.04C106.978 58.04 107.741 58.2267 108.423 58.6C109.106 58.9733 109.645 59.5067 110.039 60.2C110.434 60.8933 110.631 61.688 110.631 62.584C110.631 63.48 110.429 64.2747 110.023 64.968C109.618 65.6613 109.063 66.2 108.359 66.584C107.666 66.9573 106.898 67.144 106.055 67.144ZM106.055 65.56C106.525 65.56 106.962 65.448 107.367 65.224C107.783 65 108.119 64.664 108.375 64.216C108.631 63.768 108.759 63.224 108.759 62.584C108.759 61.944 108.637 61.4053 108.391 60.968C108.146 60.52 107.821 60.184 107.415 59.96C107.01 59.736 106.573 59.624 106.103 59.624C105.634 59.624 105.197 59.736 104.791 59.96C104.397 60.184 104.082 60.52 103.847 60.968C103.613 61.4053 103.495 61.944 103.495 62.584C103.495 63.5333 103.735 64.2693 104.215 64.792C104.706 65.304 105.319 65.56 106.055 65.56ZM114.562 59.672V64.552C114.562 64.8827 114.637 65.1227 114.786 65.272C114.946 65.4107 115.213 65.48 115.586 65.48H116.706V67H115.266C114.445 67 113.816 66.808 113.378 66.424C112.941 66.04 112.722 65.416 112.722 64.552V59.672H111.682V58.184H112.722V55.992H114.562V58.184H116.706V59.672H114.562ZM117.78 62.552C117.78 61.6667 117.961 60.8827 118.324 60.2C118.697 59.5173 119.198 58.9893 119.828 58.616C120.468 58.232 121.172 58.04 121.94 58.04C122.633 58.04 123.236 58.1787 123.748 58.456C124.27 58.7227 124.686 59.0587 124.996 59.464V58.184H126.836V67H124.996V65.688C124.686 66.104 124.265 66.4507 123.732 66.728C123.198 67.0053 122.59 67.144 121.908 67.144C121.15 67.144 120.457 66.952 119.828 66.568C119.198 66.1733 118.697 65.6293 118.324 64.936C117.961 64.232 117.78 63.4373 117.78 62.552ZM124.996 62.584C124.996 61.976 124.868 61.448 124.612 61C124.366 60.552 124.041 60.2107 123.636 59.976C123.23 59.7413 122.793 59.624 122.324 59.624C121.854 59.624 121.417 59.7413 121.012 59.976C120.606 60.2 120.276 60.536 120.02 60.984C119.774 61.4213 119.652 61.944 119.652 62.552C119.652 63.16 119.774 63.6933 120.02 64.152C120.276 64.6107 120.606 64.9627 121.012 65.208C121.428 65.4427 121.865 65.56 122.324 65.56C122.793 65.56 123.23 65.4427 123.636 65.208C124.041 64.9733 124.366 64.632 124.612 64.184C124.868 63.7253 124.996 63.192 124.996 62.584ZM131.055 55.16V67H129.231V55.16H131.055ZM136.998 62.552C136.998 61.6667 137.18 60.8827 137.542 60.2C137.916 59.5173 138.417 58.9893 139.046 58.616C139.686 58.232 140.396 58.04 141.174 58.04C141.75 58.04 142.316 58.168 142.87 58.424C143.436 58.6693 143.884 59 144.214 59.416V55.16H146.054V67H144.214V65.672C143.916 66.0987 143.5 66.4507 142.966 66.728C142.444 67.0053 141.841 67.144 141.158 67.144C140.39 67.144 139.686 66.952 139.046 66.568C138.417 66.1733 137.916 65.6293 137.542 64.936C137.18 64.232 136.998 63.4373 136.998 62.552ZM144.214 62.584C144.214 61.976 144.086 61.448 143.83 61C143.585 60.552 143.26 60.2107 142.854 59.976C142.449 59.7413 142.012 59.624 141.542 59.624C141.073 59.624 140.636 59.7413 140.23 59.976C139.825 60.2 139.494 60.536 139.238 60.984C138.993 61.4213 138.87 61.944 138.87 62.552C138.87 63.16 138.993 63.6933 139.238 64.152C139.494 64.6107 139.825 64.9627 140.23 65.208C140.646 65.4427 141.084 65.56 141.542 65.56C142.012 65.56 142.449 65.4427 142.854 65.208C143.26 64.9733 143.585 64.632 143.83 64.184C144.086 63.7253 144.214 63.192 144.214 62.584ZM152.274 67.144C151.442 67.144 150.69 66.9573 150.018 66.584C149.346 66.2 148.818 65.6667 148.434 64.984C148.05 64.2907 147.858 63.4907 147.858 62.584C147.858 61.688 148.055 60.8933 148.45 60.2C148.845 59.5067 149.383 58.9733 150.066 58.6C150.749 58.2267 151.511 58.04 152.354 58.04C153.197 58.04 153.959 58.2267 154.642 58.6C155.325 58.9733 155.863 59.5067 156.258 60.2C156.653 60.8933 156.85 61.688 156.85 62.584C156.85 63.48 156.647 64.2747 156.242 64.968C155.837 65.6613 155.282 66.2 154.578 66.584C153.885 66.9573 153.117 67.144 152.274 67.144ZM152.274 65.56C152.743 65.56 153.181 65.448 153.586 65.224C154.002 65 154.338 64.664 154.594 64.216C154.85 63.768 154.978 63.224 154.978 62.584C154.978 61.944 154.855 61.4053 154.61 60.968C154.365 60.52 154.039 60.184 153.634 59.96C153.229 59.736 152.791 59.624 152.322 59.624C151.853 59.624 151.415 59.736 151.01 59.96C150.615 60.184 150.301 60.52 150.066 60.968C149.831 61.4053 149.714 61.944 149.714 62.584C149.714 63.5333 149.954 64.2693 150.434 64.792C150.925 65.304 151.538 65.56 152.274 65.56ZM163.101 58.04C163.794 58.04 164.413 58.184 164.957 58.472C165.512 58.76 165.944 59.1867 166.253 59.752C166.562 60.3173 166.717 61 166.717 61.8V67H164.909V62.072C164.909 61.2827 164.712 60.68 164.317 60.264C163.922 59.8373 163.384 59.624 162.701 59.624C162.018 59.624 161.474 59.8373 161.069 60.264C160.674 60.68 160.477 61.2827 160.477 62.072V67H158.653V58.184H160.477V59.192C160.776 58.8293 161.154 58.5467 161.613 58.344C162.082 58.1413 162.578 58.04 163.101 58.04ZM168.436 62.552C168.436 61.6667 168.617 60.8827 168.98 60.2C169.353 59.5173 169.854 58.9893 170.484 58.616C171.124 58.232 171.828 58.04 172.596 58.04C173.289 58.04 173.892 58.1787 174.404 58.456C174.926 58.7227 175.342 59.0587 175.652 59.464V58.184H177.492V67H175.652V65.688C175.342 66.104 174.921 66.4507 174.388 66.728C173.854 67.0053 173.246 67.144 172.564 67.144C171.806 67.144 171.113 66.952 170.484 66.568C169.854 66.1733 169.353 65.6293 168.98 64.936C168.617 64.232 168.436 63.4373 168.436 62.552ZM175.652 62.584C175.652 61.976 175.524 61.448 175.268 61C175.022 60.552 174.697 60.2107 174.292 59.976C173.886 59.7413 173.449 59.624 172.98 59.624C172.51 59.624 172.073 59.7413 171.668 59.976C171.262 60.2 170.932 60.536 170.676 60.984C170.43 61.4213 170.308 61.944 170.308 62.552C170.308 63.16 170.43 63.6933 170.676 64.152C170.932 64.6107 171.262 64.9627 171.668 65.208C172.084 65.4427 172.521 65.56 172.98 65.56C173.449 65.56 173.886 65.4427 174.292 65.208C174.697 64.9733 175.022 64.632 175.268 64.184C175.524 63.7253 175.652 63.192 175.652 62.584ZM182.016 59.672V64.552C182.016 64.8827 182.09 65.1227 182.24 65.272C182.4 65.4107 182.666 65.48 183.04 65.48H184.16V67H182.72C181.898 67 181.269 66.808 180.832 66.424C180.394 66.04 180.176 65.416 180.176 64.552V59.672H179.136V58.184H180.176V55.992H182.016V58.184H184.16V59.672H182.016ZM186.769 57.016C186.438 57.016 186.161 56.904 185.937 56.68C185.713 56.456 185.601 56.1787 185.601 55.848C185.601 55.5173 185.713 55.24 185.937 55.016C186.161 54.792 186.438 54.68 186.769 54.68C187.089 54.68 187.361 54.792 187.585 55.016C187.809 55.24 187.921 55.5173 187.921 55.848C187.921 56.1787 187.809 56.456 187.585 56.68C187.361 56.904 187.089 57.016 186.769 57.016ZM187.665 58.184V67H185.841V58.184H187.665ZM193.883 67.144C193.051 67.144 192.299 66.9573 191.627 66.584C190.955 66.2 190.427 65.6667 190.043 64.984C189.659 64.2907 189.467 63.4907 189.467 62.584C189.467 61.688 189.665 60.8933 190.059 60.2C190.454 59.5067 190.993 58.9733 191.675 58.6C192.358 58.2267 193.121 58.04 193.963 58.04C194.806 58.04 195.569 58.2267 196.251 58.6C196.934 58.9733 197.473 59.5067 197.867 60.2C198.262 60.8933 198.459 61.688 198.459 62.584C198.459 63.48 198.257 64.2747 197.851 64.968C197.446 65.6613 196.891 66.2 196.187 66.584C195.494 66.9573 194.726 67.144 193.883 67.144ZM193.883 65.56C194.353 65.56 194.79 65.448 195.195 65.224C195.611 65 195.947 64.664 196.203 64.216C196.459 63.768 196.587 63.224 196.587 62.584C196.587 61.944 196.465 61.4053 196.219 60.968C195.974 60.52 195.649 60.184 195.243 59.96C194.838 59.736 194.401 59.624 193.931 59.624C193.462 59.624 193.025 59.736 192.619 59.96C192.225 60.184 191.91 60.52 191.675 60.968C191.441 61.4053 191.323 61.944 191.323 62.584C191.323 63.5333 191.563 64.2693 192.043 64.792C192.534 65.304 193.147 65.56 193.883 65.56ZM204.711 58.04C205.404 58.04 206.023 58.184 206.567 58.472C207.121 58.76 207.553 59.1867 207.863 59.752C208.172 60.3173 208.327 61 208.327 61.8V67H206.519V62.072C206.519 61.2827 206.321 60.68 205.927 60.264C205.532 59.8373 204.993 59.624 204.311 59.624C203.628 59.624 203.084 59.8373 202.679 60.264C202.284 60.68 202.087 61.2827 202.087 62.072V67H200.263V58.184H202.087V59.192C202.385 58.8293 202.764 58.5467 203.223 58.344C203.692 58.1413 204.188 58.04 204.711 58.04ZM213.853 67.144C213.16 67.144 212.536 67.0213 211.981 66.776C211.437 66.52 211.005 66.1787 210.685 65.752C210.365 65.3147 210.194 64.8293 210.173 64.296H212.061C212.093 64.6693 212.269 64.984 212.589 65.24C212.92 65.4853 213.33 65.608 213.821 65.608C214.333 65.608 214.728 65.512 215.005 65.32C215.293 65.1173 215.437 64.8613 215.437 64.552C215.437 64.2213 215.277 63.976 214.957 63.816C214.648 63.656 214.152 63.48 213.469 63.288C212.808 63.1067 212.269 62.9307 211.853 62.76C211.437 62.5893 211.074 62.328 210.765 61.976C210.466 61.624 210.317 61.16 210.317 60.584C210.317 60.1147 210.456 59.688 210.733 59.304C211.01 58.9093 211.405 58.6 211.917 58.376C212.44 58.152 213.037 58.04 213.709 58.04C214.712 58.04 215.517 58.296 216.125 58.808C216.744 59.3093 217.074 59.9973 217.117 60.872H215.293C215.261 60.4773 215.101 60.1627 214.813 59.928C214.525 59.6933 214.136 59.576 213.645 59.576C213.165 59.576 212.797 59.6667 212.541 59.848C212.285 60.0293 212.157 60.2693 212.157 60.568C212.157 60.8027 212.242 61 212.413 61.16C212.584 61.32 212.792 61.448 213.037 61.544C213.282 61.6293 213.645 61.7413 214.125 61.88C214.765 62.0507 215.288 62.2267 215.693 62.408C216.109 62.5787 216.466 62.8347 216.765 63.176C217.064 63.5173 217.218 63.9707 217.229 64.536C217.229 65.0373 217.09 65.4853 216.813 65.88C216.536 66.2747 216.141 66.584 215.629 66.808C215.128 67.032 214.536 67.144 213.853 67.144Z" fill="#2A283E"/>
<path d="M183.27 111.09C183.27 111.41 183.19 111.717 183.03 112.01C182.87 112.297 182.633 112.537 182.32 112.73C182.013 112.923 181.643 113.033 181.21 113.06V113.87H180.67V113.06C180.063 113.007 179.57 112.813 179.19 112.48C178.81 112.14 178.617 111.71 178.61 111.19H179.58C179.607 111.47 179.71 111.713 179.89 111.92C180.077 112.127 180.337 112.257 180.67 112.31V109.81C180.223 109.697 179.863 109.58 179.59 109.46C179.317 109.34 179.083 109.153 178.89 108.9C178.697 108.647 178.6 108.307 178.6 107.88C178.6 107.34 178.787 106.893 179.16 106.54C179.54 106.187 180.043 105.99 180.67 105.95V105.12H181.21V105.95C181.777 105.997 182.233 106.18 182.58 106.5C182.927 106.813 183.127 107.223 183.18 107.73H182.21C182.177 107.497 182.073 107.287 181.9 107.1C181.727 106.907 181.497 106.78 181.21 106.72V109.16C181.65 109.273 182.007 109.39 182.28 109.51C182.56 109.623 182.793 109.807 182.98 110.06C183.173 110.313 183.27 110.657 183.27 111.09ZM179.53 107.83C179.53 108.157 179.627 108.407 179.82 108.58C180.013 108.753 180.297 108.897 180.67 109.01V106.7C180.323 106.733 180.047 106.847 179.84 107.04C179.633 107.227 179.53 107.49 179.53 107.83ZM181.21 112.32C181.57 112.28 181.85 112.15 182.05 111.93C182.257 111.71 182.36 111.447 182.36 111.14C182.36 110.813 182.26 110.563 182.06 110.39C181.86 110.21 181.577 110.067 181.21 109.96V112.32ZM184.821 107.59C184.867 106.977 185.104 106.497 185.531 106.15C185.957 105.803 186.511 105.63 187.191 105.63C187.644 105.63 188.034 105.713 188.361 105.88C188.694 106.04 188.944 106.26 189.111 106.54C189.284 106.82 189.371 107.137 189.371 107.49C189.371 107.903 189.251 108.26 189.011 108.56C188.777 108.86 188.471 109.053 188.091 109.14V109.19C188.524 109.297 188.867 109.507 189.121 109.82C189.374 110.133 189.501 110.543 189.501 111.05C189.501 111.43 189.414 111.773 189.241 112.08C189.067 112.38 188.807 112.617 188.461 112.79C188.114 112.963 187.697 113.05 187.211 113.05C186.504 113.05 185.924 112.867 185.471 112.5C185.017 112.127 184.764 111.6 184.711 110.92H185.591C185.637 111.32 185.801 111.647 186.081 111.9C186.361 112.153 186.734 112.28 187.201 112.28C187.667 112.28 188.021 112.16 188.261 111.92C188.507 111.673 188.631 111.357 188.631 110.97C188.631 110.47 188.464 110.11 188.131 109.89C187.797 109.67 187.294 109.56 186.621 109.56H186.391V108.8H186.631C187.244 108.793 187.707 108.693 188.021 108.5C188.334 108.3 188.491 107.993 188.491 107.58C188.491 107.227 188.374 106.943 188.141 106.73C187.914 106.517 187.587 106.41 187.161 106.41C186.747 106.41 186.414 106.517 186.161 106.73C185.907 106.943 185.757 107.23 185.711 107.59H184.821ZM194.455 108.54C194.642 108.213 194.915 107.947 195.275 107.74C195.635 107.533 196.045 107.43 196.505 107.43C196.999 107.43 197.442 107.547 197.835 107.78C198.229 108.013 198.539 108.343 198.765 108.77C198.992 109.19 199.105 109.68 199.105 110.24C199.105 110.793 198.992 111.287 198.765 111.72C198.539 112.153 198.225 112.49 197.825 112.73C197.432 112.97 196.992 113.09 196.505 113.09C196.032 113.09 195.615 112.987 195.255 112.78C194.902 112.573 194.635 112.31 194.455 111.99V113H193.545V105.6H194.455V108.54ZM198.175 110.24C198.175 109.827 198.092 109.467 197.925 109.16C197.759 108.853 197.532 108.62 197.245 108.46C196.965 108.3 196.655 108.22 196.315 108.22C195.982 108.22 195.672 108.303 195.385 108.47C195.105 108.63 194.879 108.867 194.705 109.18C194.539 109.487 194.455 109.843 194.455 110.25C194.455 110.663 194.539 111.027 194.705 111.34C194.879 111.647 195.105 111.883 195.385 112.05C195.672 112.21 195.982 112.29 196.315 112.29C196.655 112.29 196.965 112.21 197.245 112.05C197.532 111.883 197.759 111.647 197.925 111.34C198.092 111.027 198.175 110.66 198.175 110.24ZM200.773 106.63C200.6 106.63 200.453 106.57 200.333 106.45C200.213 106.33 200.153 106.183 200.153 106.01C200.153 105.837 200.213 105.69 200.333 105.57C200.453 105.45 200.6 105.39 200.773 105.39C200.94 105.39 201.08 105.45 201.193 105.57C201.313 105.69 201.373 105.837 201.373 106.01C201.373 106.183 201.313 106.33 201.193 106.45C201.08 106.57 200.94 106.63 200.773 106.63ZM201.213 107.52V113H200.303V107.52H201.213ZM203.674 105.6V113H202.764V105.6H203.674ZM206.135 105.6V113H205.225V105.6H206.135ZM208.156 106.63C207.983 106.63 207.836 106.57 207.716 106.45C207.596 106.33 207.536 106.183 207.536 106.01C207.536 105.837 207.596 105.69 207.716 105.57C207.836 105.45 207.983 105.39 208.156 105.39C208.323 105.39 208.463 105.45 208.576 105.57C208.696 105.69 208.756 105.837 208.756 106.01C208.756 106.183 208.696 106.33 208.576 106.45C208.463 106.57 208.323 106.63 208.156 106.63ZM208.596 107.52V113H207.686V107.52H208.596ZM212.537 113.09C212.024 113.09 211.557 112.973 211.137 112.74C210.724 112.507 210.397 112.177 210.157 111.75C209.924 111.317 209.807 110.817 209.807 110.25C209.807 109.69 209.927 109.197 210.167 108.77C210.414 108.337 210.747 108.007 211.167 107.78C211.587 107.547 212.057 107.43 212.577 107.43C213.097 107.43 213.567 107.547 213.987 107.78C214.407 108.007 214.737 108.333 214.977 108.76C215.224 109.187 215.347 109.683 215.347 110.25C215.347 110.817 215.22 111.317 214.967 111.75C214.72 112.177 214.384 112.507 213.957 112.74C213.53 112.973 213.057 113.09 212.537 113.09ZM212.537 112.29C212.864 112.29 213.17 112.213 213.457 112.06C213.744 111.907 213.974 111.677 214.147 111.37C214.327 111.063 214.417 110.69 214.417 110.25C214.417 109.81 214.33 109.437 214.157 109.13C213.984 108.823 213.757 108.597 213.477 108.45C213.197 108.297 212.894 108.22 212.567 108.22C212.234 108.22 211.927 108.297 211.647 108.45C211.374 108.597 211.154 108.823 210.987 109.13C210.82 109.437 210.737 109.81 210.737 110.25C210.737 110.697 210.817 111.073 210.977 111.38C211.144 111.687 211.364 111.917 211.637 112.07C211.91 112.217 212.21 112.29 212.537 112.29ZM219.213 107.42C219.88 107.42 220.42 107.623 220.833 108.03C221.247 108.43 221.453 109.01 221.453 109.77V113H220.553V109.9C220.553 109.353 220.417 108.937 220.143 108.65C219.87 108.357 219.497 108.21 219.023 108.21C218.543 108.21 218.16 108.36 217.873 108.66C217.593 108.96 217.453 109.397 217.453 109.97V113H216.543V107.52H217.453V108.3C217.633 108.02 217.877 107.803 218.183 107.65C218.497 107.497 218.84 107.42 219.213 107.42Z" fill="#2A283E"/>
<path d="M196.414 101.025H205.636C206.527 101.025 206.973 99.948 206.343 99.318L201.732 94.7071C201.342 94.3166 200.709 94.3166 200.318 94.7071L195.707 99.318C195.077 99.948 195.523 101.025 196.414 101.025Z" fill="#E03C33"/>
<circle opacity="0.1" cx="55" cy="74" r="25" fill="#F6A61D"/>
<path d="M42.8455 82.79L48.7105 76.925L52.954 81.167L59.8105 74.312L62.5 77V69.5H55L57.6895 72.1895L52.954 76.925L48.712 72.6815L41.293 80.1005C40.4379 78.1805 39.9973 76.1018 40 74C40 65.7155 46.7155 59 55 59C63.2845 59 70 65.7155 70 74C70 82.2845 63.2845 89 55 89C52.627 89.0016 50.2876 88.4393 48.1744 87.3597C46.0613 86.28 44.2348 84.7138 42.8455 82.79Z" fill="#E03C33"/>
<rect opacity="0.3" x="92" y="83" width="154" height="6" rx="3" fill="#C4C4C4"/>
<rect x="92" y="83" width="109" height="6" rx="3" fill="#E03C33"/>
<defs>
<filter id="filter0_d_649_55" x="0" y="0" width="304" height="172" filterUnits="userSpaceOnUse" color-interpolation-filters="sRGB">
<feFlood flood-opacity="0" result="BackgroundImageFix"/>
<feColorMatrix in="SourceAlpha" type="matrix" values="0 0 0 0 0 0 0 0 0 0 0 0 0 0 0 0 0 0 127 0" result="hardAlpha"/>
<feOffset dx="10" dy="12"/>
<feGaussianBlur stdDeviation="15"/>
<feComposite in2="hardAlpha" operator="out"/>
<feColorMatrix type="matrix" values="0 0 0 0 0 0 0 0 0 0 0 0 0 0 0 0 0 0 0.1 0"/>
<feBlend mode="normal" in2="BackgroundImageFix" result="effect1_dropShadow_649_55"/>
<feBlend mode="normal" in="SourceGraphic" in2="effect1_dropShadow_649_55" result="shape"/>
</filter>
</defs>
</svg>
