<svg width="54" height="54" viewBox="0 0 54 54" fill="none" xmlns="http://www.w3.org/2000/svg">
<g clip-path="url(#clip0_655_36)">
<path d="M51.0618 18.3124C50.1135 18.1176 48.0862 18.3647 47.0884 20.687C47.0817 20.7029 47.0752 20.7188 47.0691 20.7349L43.9866 29.0016C43.4594 28.6918 42.8573 28.5266 42.2302 28.5266C41.5632 28.5266 40.9141 28.7176 40.3542 29.078L32.4486 34.1525C29.4491 35.9792 27.851 38.3778 27 40.4055C26.149 38.3778 24.5509 35.9792 21.5514 34.1525L13.647 29.0789C13.086 28.7176 12.4368 28.5267 11.7698 28.5267C11.1428 28.5267 10.5408 28.6919 10.0134 29.0017C10.0134 29.0017 6.91833 20.703 6.91159 20.6872C5.91385 18.3649 3.88685 18.1179 2.93826 18.3125C1.0124 18.6716 -0.209981 20.3307 0.0299606 22.2625C0.035234 22.3045 3.39304 35.8132 3.39304 35.8132C4.2794 39.3571 6.68789 42.9321 9.83581 45.3762C9.84678 45.3848 9.85775 45.3929 9.86893 45.4009L15.1979 49.2137V51.1059C15.1979 52.269 16.1442 53.2153 17.3073 53.2153H36.6927C37.8558 53.2153 38.8021 52.269 38.8021 51.1059V49.2137L44.1311 45.4009C44.1423 45.3929 44.1533 45.3847 44.1642 45.3762C47.3121 42.9321 49.7205 39.3571 50.6073 35.8119C50.6073 35.8119 53.9648 22.3045 53.9701 22.2625C54.2099 20.3305 52.9876 18.6715 51.0618 18.3124ZM25.9335 45.946C25.9307 45.9775 25.9292 51.1058 25.9292 51.1058H17.3073V48.6714C17.3073 48.331 17.1431 48.0117 16.8663 47.8136L11.1132 43.6975C8.37507 41.5655 6.20178 38.35 5.43956 35.3025L2.11708 21.9462C2.04199 21.1443 2.51364 20.5344 3.33187 20.3848C3.35265 20.381 3.34284 20.3837 3.35476 20.3807C3.55694 20.3494 4.43497 20.2911 4.96411 21.4977L8.46852 30.8957C8.06816 32.0769 8.32677 33.4245 9.25088 34.3959C9.28537 34.4323 14.693 38.7016 14.693 38.7016C15.1501 39.0623 15.8135 38.9839 16.1742 38.5266C16.5349 38.0692 16.4566 37.4061 15.9992 37.0454L10.7358 32.8943C10.2748 32.3606 10.2996 31.5407 10.8023 31.0373C11.0613 30.7785 11.4049 30.6359 11.7699 30.6359C12.0311 30.6359 12.2854 30.7107 12.5065 30.8531C12.5065 30.8531 20.4373 35.9435 20.4447 35.9481C22.9349 37.4616 24.6144 39.5904 25.4366 42.2751C26.0612 44.3146 25.9345 45.9332 25.9335 45.946ZM51.8829 21.9462L48.5607 35.3012C47.7982 38.3501 45.6248 41.5655 42.8867 43.6975L37.1337 47.8136C36.8568 48.0116 36.6926 48.331 36.6926 48.6714V51.1058H28.0707C28.0707 51.1058 28.0692 45.9775 28.0664 45.946C28.0607 45.8828 27.5644 39.5893 33.5552 35.9481C33.5626 35.9436 41.4947 30.8523 41.4947 30.8523C41.7146 30.7108 41.9689 30.6359 42.2301 30.6359C42.5951 30.6359 42.9388 30.7785 43.1972 31.0368C43.7004 31.5407 43.7252 32.3606 43.2642 32.8943L38.0008 37.0454C37.5434 37.4061 37.4651 38.0692 37.8258 38.5266C38.1864 38.984 38.8497 39.0622 39.307 38.7016C39.307 38.7016 44.7146 34.4323 44.7491 34.3959C45.6731 33.4246 45.9318 32.0772 45.5314 30.8958L49.0359 21.4976C49.5653 20.291 50.4437 20.3492 50.6453 20.3806C50.6571 20.3835 50.6474 20.3808 50.6681 20.3847C51.4864 20.5344 51.958 21.1444 51.8829 21.9462Z" fill="black"/>
<path d="M12.6216 23.5278H18.7591V28.0835C18.7591 29.2466 19.7053 30.1929 20.8685 30.1929H22.2036C22.786 30.1929 23.2583 29.7207 23.2583 29.1382C23.2583 28.5557 22.786 28.0835 22.2036 28.0835H20.8685C20.8685 28.0835 20.8726 22.4095 20.8697 22.3782C20.8969 20.6984 22.271 19.34 23.9571 19.34H30.0432C31.7293 19.34 33.1034 20.6984 33.1306 22.3782C33.1278 22.4095 33.1318 28.0835 33.1318 28.0835H31.8139C31.2315 28.0835 30.7592 28.5557 30.7592 29.1382C30.7592 29.7207 31.2315 30.1929 31.8139 30.1929H33.1318C34.2949 30.1929 35.2412 29.2466 35.2412 28.0835V23.5278H41.3787C42.58 23.5278 43.5573 22.5504 43.5573 21.3491V15.764C43.5573 13.3612 41.9181 11.3348 39.6995 10.7421C40.6689 9.68385 41.2617 8.275 41.2617 6.7301C41.2617 3.45192 38.5947 0.785034 35.3166 0.785034C32.0384 0.785034 29.3715 3.45202 29.3715 6.7301C29.3715 7.16885 29.4206 7.5961 29.5113 8.00806C28.7479 7.65073 27.8972 7.44992 27.0001 7.44992C26.103 7.44992 25.2524 7.65084 24.4889 8.00806C24.5795 7.5961 24.6287 7.16885 24.6287 6.7301C24.6287 3.45192 21.9617 0.785034 18.6836 0.785034C15.4055 0.785034 12.7385 3.45202 12.7385 6.7301C12.7385 8.275 13.3312 9.68385 14.3007 10.7421C12.0821 11.3348 10.4429 13.3612 10.4429 15.764V21.3491C10.443 22.5505 11.4204 23.5278 12.6216 23.5278ZM41.448 15.764V21.3491C41.448 21.3873 41.4169 21.4184 41.3788 21.4184H35.142C34.757 19.4725 33.2829 17.9141 31.3834 17.4067C32.3527 16.3485 32.9454 14.9398 32.9454 13.3949C32.9454 13.1511 32.9289 12.9114 32.9002 12.6753H38.3593C40.0624 12.6754 41.448 14.0609 41.448 15.764ZM35.3167 2.8943C37.4318 2.8943 39.1524 4.61503 39.1524 6.7301C39.1524 8.84517 37.4318 10.5659 35.3167 10.5659C33.2017 10.5659 31.4809 8.84517 31.4809 6.7301C31.4809 4.61503 33.2018 2.8943 35.3167 2.8943ZM30.836 13.395C30.836 15.5101 29.1153 17.2308 27.0002 17.2308C24.8851 17.2308 23.1644 15.5101 23.1644 13.395C23.1644 11.2799 24.8851 9.55919 27.0002 9.55919C29.1153 9.55919 30.836 11.2799 30.836 13.395ZM18.6837 2.8943C20.7987 2.8943 22.5195 4.61503 22.5195 6.7301C22.5195 8.84517 20.7987 10.5659 18.6837 10.5659C16.5686 10.5659 14.848 8.84517 14.848 6.7301C14.848 4.61503 16.5686 2.8943 18.6837 2.8943ZM12.5524 15.764C12.5524 14.0609 13.938 12.6754 15.641 12.6754H21.1001C21.0715 12.9115 21.0549 13.1512 21.0549 13.395C21.0549 14.9398 21.6476 16.3485 22.6169 17.4068C20.7174 17.9142 19.2433 19.4725 18.8583 21.4185H12.6216C12.5835 21.4185 12.5524 21.3874 12.5524 21.3492V15.764Z" fill="black"/>
<path d="M27 30.1926C27.5825 30.1926 28.0547 29.7204 28.0547 29.1379C28.0547 28.5555 27.5825 28.0833 27 28.0833C26.4175 28.0833 25.9453 28.5555 25.9453 29.1379C25.9453 29.7204 26.4175 30.1926 27 30.1926Z" fill="black"/>
</g>
<defs>
<clipPath id="clip0_655_36">
<rect width="54" height="54" fill="white"/>
</clipPath>
</defs>
</svg>
