<svg width="118" height="70" viewBox="0 0 118 70" fill="none" xmlns="http://www.w3.org/2000/svg">
<g id="Highlight_10">
<g id="Group">
<path id="Vector" fill-rule="evenodd" clip-rule="evenodd" d="M85.0796 66.5939C95.615 66.8472 106.381 66.3405 116.455 69.9332C117.055 70.145 117.716 69.8364 117.933 69.2377C118.145 68.6389 117.836 67.9803 117.235 67.7638C106.926 64.0882 95.9152 64.5488 85.135 64.2909C84.4976 64.2725 83.9665 64.7791 83.9526 65.4147C83.9342 66.0504 84.4422 66.5754 85.0796 66.5939Z" fill="#E03C33"/>
<path id="Vector_2" fill-rule="evenodd" clip-rule="evenodd" d="M84.1331 51.3405C87.4171 48.3273 91.0012 46.0699 95.3336 44.9511C95.9525 44.7918 96.322 44.163 96.165 43.5477C96.0033 42.9323 95.3706 42.5625 94.7563 42.7218C90.0451 43.9378 86.1423 46.3707 82.572 49.645C82.1009 50.0752 82.0685 50.8044 82.5027 51.2723C82.9322 51.7398 83.6666 51.7707 84.1331 51.3405Z" fill="#E03C33"/>
<g id="Group_2">
<path id="Vector_3" fill-rule="evenodd" clip-rule="evenodd" d="M74.9973 18.4434C76.503 13.2962 79.4682 9.26973 84.0131 6.362C84.5489 6.01885 84.7059 5.30586 84.3595 4.77111C84.0177 4.23636 83.3018 4.08067 82.766 4.42381C77.7362 7.64337 74.4476 12.0992 72.7803 17.7981C72.6001 18.4079 72.9558 19.0482 73.5655 19.2259C74.1798 19.4042 74.8218 19.0532 74.9973 18.4434Z" fill="#E03C33"/>
</g>
<path id="Vector_4" fill-rule="evenodd" clip-rule="evenodd" d="M23.1053 11.458C22.2093 12.5095 21.4056 13.6426 20.722 14.8489C20.4172 15.386 19.8814 16.5273 19.7983 17.5061C19.7059 18.5488 20.0615 19.4286 20.976 19.892C22.1907 20.5064 23.1607 20.4424 23.909 20.0707C24.6295 19.7137 25.1929 19.0122 25.5486 18.0717C26.2275 16.274 26.1259 13.5266 25.7703 11.9587C26.7264 10.9749 27.7748 10.0827 28.8972 9.28953C37.2571 3.3824 49.52 5.56056 58.9561 14.3929C62.2585 17.4853 63.8474 23.9797 64.6741 30.9867C65.9628 41.8968 65.2284 54.0823 65.1268 57.6524C65.1037 58.534 65.1868 59.0572 65.233 59.1618C65.4501 59.6758 65.8334 59.8094 66.1013 59.86C66.4893 59.9291 66.7987 59.8554 67.0481 59.7265C67.3853 59.5496 67.6625 59.2382 67.7918 58.7578C67.8611 58.4925 67.8795 58.1231 67.8703 57.7293C67.8611 57.4562 67.8056 57.1577 67.861 56.962C68.2213 55.7082 68.6555 54.484 69.0804 53.2509C70.4984 49.1061 72.332 45.2219 74.3689 41.3423C80.8398 29.0149 87.0982 15.9898 97.7075 6.59781C98.1832 6.17637 98.2294 5.44771 97.8045 4.97238C97.3842 4.49705 96.6544 4.45374 96.1741 4.87565C85.3523 14.4532 78.923 27.7027 72.3228 40.2742C70.5908 43.5743 69.0019 46.8791 67.6809 50.3359C67.8148 44.221 67.764 35.7567 66.6417 28.2674C65.644 21.6067 63.7457 15.7203 60.5357 12.714C50.1989 3.03834 36.7167 0.93942 27.5624 7.41077C26.5832 8.1035 25.6502 8.86534 24.7819 9.69164C19.9923 1.06702 9.73858 -2.38977 0.676573 1.73532C0.0946088 1.99924 -0.159419 2.68277 0.103851 3.26081C0.371739 3.83886 1.05529 4.09404 1.63725 3.83012C9.80322 0.11312 19.0639 3.43031 23.1053 11.458ZM23.775 14.3455C23.4009 14.8724 23.0545 15.4187 22.7312 15.9834C22.5603 16.2864 22.2646 16.8691 22.1399 17.4393C22.1122 17.5729 22.1076 17.782 22.1076 17.8787C22.4263 18.0353 22.6757 18.1108 22.8789 18.0091C23.133 17.8838 23.2623 17.589 23.387 17.2597C23.7011 16.4333 23.8027 15.338 23.775 14.3455Z" fill="#E03C33"/>
</g>
</g>
</svg>
