<svg width="54" height="54" viewBox="0 0 54 54" fill="none" xmlns="http://www.w3.org/2000/svg">
<g clip-path="url(#clip0_655_123)">
<path d="M50.4003 10.8C48.4148 10.8 46.8003 12.4147 46.8003 14.4C46.8003 16.3854 48.4149 18 50.4003 18C52.3856 18 54.0002 16.3855 54.0002 14.4C54.0002 12.4147 52.3856 10.8 50.4003 10.8ZM50.4003 16.2C49.4076 16.2 48.6002 15.3928 48.6002 14.4C48.6002 13.4073 49.4075 12.6 50.4003 12.6C51.393 12.6 52.2003 13.4072 52.2003 14.4C52.2002 15.3928 51.3929 16.2 50.4003 16.2Z" fill="black"/>
<path d="M3.59996 40.5C1.61462 40.5 0 42.1146 0 44.1C0 46.0853 1.61462 47.6999 3.59996 47.6999C5.58541 47.6999 7.19993 46.0853 7.19993 44.1C7.19993 42.1146 5.58541 40.5 3.59996 40.5ZM3.59996 45.9C2.60729 45.9 1.79993 45.0927 1.79993 44.1C1.79993 43.1072 2.60719 42.2999 3.59996 42.2999C4.59264 42.2999 5.4 43.1072 5.4 44.1C5.4 45.0927 4.59274 45.9 3.59996 45.9Z" fill="black"/>
<path d="M48.655 11.9376L40.8907 8.18912C40.4425 7.97217 39.9052 8.16117 39.6892 8.60857C39.4732 9.05586 39.6612 9.59407 40.1086 9.81007L47.8729 13.5585C47.999 13.6197 48.1322 13.6485 48.2635 13.6485C48.5982 13.6485 48.9196 13.4613 49.0743 13.1391C49.2903 12.6918 49.1023 12.1536 48.655 11.9376Z" fill="black"/>
<path d="M40.4999 46.7999C38.5144 46.7999 36.8999 48.4145 36.8999 50.3999C36.8999 52.3852 38.5144 54 40.4999 54C42.4853 54 44.0998 52.3853 44.0998 50.4C44.0998 48.4147 42.4853 46.7999 40.4999 46.7999ZM40.4999 52.1999C39.5072 52.1999 38.6998 51.3927 38.6998 50.3999C38.6998 49.4071 39.5072 48.6 40.4999 48.6C41.4925 48.6 42.2999 49.4072 42.2999 50.4C42.2999 51.3928 41.4925 52.1999 40.4999 52.1999Z" fill="black"/>
<path d="M38.7551 47.9376L30.9908 44.1891C30.5426 43.9722 30.0053 44.1603 29.7893 44.6086C29.5733 45.0559 29.7613 45.5941 30.2087 45.8101L37.973 49.5586C38.0991 49.6197 38.2323 49.6485 38.3636 49.6485C38.6983 49.6485 39.0197 49.4613 39.1745 49.1391C39.3904 48.6917 39.2024 48.1536 38.7551 47.9376Z" fill="black"/>
<path d="M26.9999 24.3C25.0144 24.3 23.3999 25.9147 23.3999 27.9C23.3999 29.8855 25.0145 31.5 26.9999 31.5C28.9853 31.5 30.5998 29.8854 30.5998 27.9C30.5998 25.9147 28.9853 24.3 26.9999 24.3ZM26.9999 29.7001C26.0072 29.7001 25.1998 28.8928 25.1998 27.9C25.1998 26.9073 26.0071 26.1 26.9999 26.1C27.9925 26.1 28.7999 26.9072 28.7999 27.9C28.7999 28.8928 27.9925 29.7001 26.9999 29.7001Z" fill="black"/>
<path d="M25.418 25.5384L19.4537 20.8899C19.0613 20.5866 18.4962 20.6541 18.1901 21.0465C17.885 21.439 17.9543 22.0041 18.3467 22.3102L24.311 26.9587C24.4757 27.0865 24.6701 27.1486 24.8636 27.1486C25.1319 27.1486 25.3965 27.0299 25.5746 26.8022C25.8797 26.4096 25.8104 25.8444 25.418 25.5384Z" fill="black"/>
<path d="M43.1998 23.4C37.7413 23.4 33.2998 27.8415 33.2998 33.3001C33.2998 38.7586 37.7413 43.2001 43.1998 43.2001C48.6584 43.2001 53.0999 38.7586 53.0999 33.3001C53.0999 27.8415 48.6584 23.4 43.1998 23.4ZM43.1998 41.4C38.7331 41.4 35.0998 37.7667 35.0998 33.3C35.0998 28.8332 38.7331 25.2 43.1998 25.2C47.6665 25.2 51.2998 28.8332 51.2998 33.3C51.2998 37.7667 47.6665 41.4 43.1998 41.4Z" fill="black"/>
<path d="M43.2001 27C41.2146 27 39.6001 28.6146 39.6001 30.6C39.6001 32.5854 41.2147 34.1999 43.2001 34.1999C45.1855 34.1999 46.8 32.5853 46.8 30.6C46.8 28.6146 45.1855 27 43.2001 27ZM43.2001 32.4C42.2074 32.4 41.4 31.5927 41.4 30.6C41.4 29.6073 42.2073 28.7999 43.2001 28.7999C44.1927 28.7999 45.0001 29.6072 45.0001 30.6C45.0001 31.5927 44.1927 32.4 43.2001 32.4Z" fill="black"/>
<path d="M45.8107 36H40.5889C39.0509 36 37.7998 37.2177 37.7998 38.7135V41.0859C37.7998 41.4072 37.9708 41.7042 38.2489 41.8653C39.7573 42.7383 41.4691 43.2 43.1998 43.2C44.9305 43.2 46.6423 42.7383 48.1507 41.8653C48.4288 41.7051 48.5998 41.4072 48.5998 41.0869V38.7144C48.5998 37.2177 47.3488 36 45.8107 36ZM46.7998 40.5495C44.5597 41.6655 41.8399 41.6655 39.5997 40.5495V38.7144C39.5997 38.2104 40.0434 37.8 40.5888 37.8H45.8106C46.356 37.8 46.7997 38.2104 46.7997 38.7144V40.5495H46.7998Z" fill="black"/>
<path d="M21.6002 34.2001C16.1417 34.2001 11.7002 38.6416 11.7002 44.1001C11.7002 49.5586 16.1417 54 21.6002 54C27.0588 54 31.5003 49.5585 31.5003 44.1C31.5003 38.6415 27.0588 34.2001 21.6002 34.2001ZM21.6002 52.2C17.1335 52.2 13.5002 48.5667 13.5002 44.1C13.5002 39.6333 17.1335 36 21.6002 36C26.0669 36 29.7002 39.6333 29.7002 44.1C29.7002 48.5667 26.0669 52.2 21.6002 52.2Z" fill="black"/>
<path d="M21.6 37.8C19.6145 37.8 18 39.4147 18 41.4C18 43.3855 19.6146 45 21.6 45C23.5853 45 25.1999 43.3854 25.1999 41.4C25.1999 39.4147 23.5854 37.8 21.6 37.8ZM21.6 43.2001C20.6073 43.2001 19.7999 42.3928 19.7999 41.4C19.7999 40.4073 20.6072 39.6 21.6 39.6C22.5926 39.6 23.4 40.4072 23.4 41.4C23.4 42.3928 22.5926 43.2001 21.6 43.2001Z" fill="black"/>
<path d="M24.2111 46.7999H18.9893C17.4513 46.7999 16.2002 48.0177 16.2002 49.5134V51.8858C16.2002 52.2071 16.3712 52.5041 16.6493 52.6653C18.1577 53.5382 19.8695 54 21.6002 54C23.3309 54 25.0427 53.5382 26.5511 52.6653C26.8292 52.505 27.0002 52.2072 27.0002 51.8868V49.5144C27.0002 48.0177 25.7492 46.7999 24.2111 46.7999ZM25.2002 51.3494C22.96 52.4654 20.2403 52.4654 18.0001 51.3494V49.5144C18.0001 49.0103 18.4438 48.6 18.9892 48.6H24.211C24.7563 48.6 25.2001 49.0103 25.2001 49.5144L25.2002 51.3494Z" fill="black"/>
<path d="M9.90003 11.7C4.4415 11.7 0 16.1415 0 21.6C0 27.0585 4.4415 31.5 9.90003 31.5C15.3586 31.5 19.8001 27.0585 19.8001 21.6C19.8 16.1415 15.3585 11.7 9.90003 11.7ZM9.90003 29.7C5.43333 29.7 1.80004 26.0667 1.80004 21.6C1.80004 17.1333 5.43333 13.5 9.90003 13.5C14.3667 13.5 18 17.1333 18 21.6C18 26.0667 14.3667 29.7 9.90003 29.7Z" fill="black"/>
<path d="M9.90026 15.3C7.91481 15.3 6.30029 16.9147 6.30029 18.9C6.30029 20.8854 7.91491 22.5 9.90026 22.5C11.8857 22.5 13.5002 20.8854 13.5002 18.9C13.5002 16.9147 11.8856 15.3 9.90026 15.3ZM9.90026 20.7C8.90759 20.7 8.10022 19.8928 8.10022 18.9C8.10022 17.9072 8.90748 17.1 9.90026 17.1C10.8929 17.1 11.7003 17.9072 11.7003 18.9C11.7003 19.8928 10.8929 20.7 9.90026 20.7Z" fill="black"/>
<path d="M12.5109 24.3H7.28912C5.75107 24.3 4.5 25.5178 4.5 27.0135V29.386C4.5 29.7072 4.67096 30.0042 4.94909 30.1654C6.4575 31.0383 8.16926 31.5001 9.9 31.5001C11.6307 31.5001 13.3425 31.0383 14.8509 30.1654C15.129 30.0052 15.3 29.7072 15.3 29.3869V27.0145C15.3 25.5178 14.0489 24.3 12.5109 24.3ZM13.5 28.8496C11.2599 29.9655 8.54009 29.9655 6.29993 28.8496V27.0145C6.29993 26.5105 6.74364 26.1001 7.28902 26.1001H12.5108C13.0562 26.1001 13.4999 26.5105 13.4999 27.0145L13.5 28.8496Z" fill="black"/>
<path d="M31.5001 0C26.0416 0 21.6001 4.4415 21.6001 9.90003C21.6001 15.3586 26.0416 19.8001 31.5001 19.8001C36.9587 19.8001 41.4002 15.3586 41.4002 9.90003C41.4001 4.4415 36.9586 0 31.5001 0ZM31.5001 18C27.0334 18 23.4001 14.3667 23.4001 9.90003C23.4001 5.43333 27.0334 1.80004 31.5001 1.80004C35.9668 1.80004 39.6001 5.43333 39.6001 9.90003C39.6001 14.3667 35.9668 18 31.5001 18Z" fill="black"/>
<path d="M31.4999 3.59998C29.5144 3.59998 27.8999 5.2146 27.8999 7.19994C27.8999 9.18528 29.5145 10.7999 31.4999 10.7999C33.4852 10.7999 35.0998 9.18539 35.0998 7.20005C35.0998 5.2147 33.4852 3.59998 31.4999 3.59998ZM31.4999 8.99998C30.5072 8.99998 29.6998 8.19272 29.6998 7.19994C29.6998 6.20727 30.5071 5.39991 31.4999 5.39991C32.4926 5.39991 33.2999 6.20716 33.2999 7.19994C33.2998 8.19272 32.4925 8.99998 31.4999 8.99998Z" fill="black"/>
<path d="M34.111 12.6H28.8892C27.3512 12.6 26.1001 13.8177 26.1001 15.3135V17.6859C26.1001 18.0071 26.2711 18.3041 26.5492 18.4653C28.0576 19.3383 29.7694 19.8 31.5001 19.8C33.2308 19.8 34.9426 19.3383 36.451 18.4653C36.7291 18.3051 36.9001 18.0071 36.9001 17.6868V15.3144C36.9001 13.8176 35.649 12.6 34.111 12.6ZM35.1001 17.1495C32.86 18.2654 30.1402 18.2654 27.9 17.1495V15.3144C27.9 14.8104 28.3437 14.4 28.8891 14.4H34.1109C34.6562 14.4 35.1 14.8104 35.1 15.3144L35.1001 17.1495Z" fill="black"/>
<path d="M23.1849 9.31405C22.8619 8.93784 22.2939 8.8928 21.9159 9.21596L15.6789 14.553C15.3009 14.876 15.2568 15.444 15.5799 15.822C15.7581 16.0299 16.0101 16.137 16.2638 16.137C16.4709 16.137 16.6788 16.0659 16.8489 15.9201L23.0859 10.583C23.464 10.26 23.5081 9.69205 23.1849 9.31405Z" fill="black"/>
<path d="M43.02 23.7609L37.62 16.5609C37.322 16.1622 36.7578 16.0839 36.36 16.3809C35.9621 16.6788 35.8821 17.2431 36.1799 17.6399L41.5799 24.84C41.7572 25.0758 42.0272 25.1999 42.3008 25.1999C42.488 25.1999 42.678 25.1414 42.84 25.0199C43.2378 24.7221 43.3179 24.1578 43.02 23.7609Z" fill="black"/>
<path d="M35.6337 36.2763C35.3358 35.8785 34.7715 35.7985 34.3737 36.0963L29.3463 39.8664C28.9485 40.1643 28.8684 40.7286 29.1663 41.1255C29.3435 41.3613 29.6135 41.4854 29.8871 41.4854C30.0752 41.4854 30.2642 41.4261 30.4263 41.3054L35.4537 37.5353C35.8515 37.2376 35.9317 36.6732 35.6337 36.2763Z" fill="black"/>
<path d="M12.5999 43.2H6.29987C5.80311 43.2 5.3999 43.6022 5.3999 44.0999C5.3999 44.5976 5.80311 44.9999 6.29987 44.9999H12.5998C13.0966 44.9999 13.4998 44.5976 13.4998 44.0999C13.4998 43.6022 13.0967 43.2 12.5999 43.2Z" fill="black"/>
<path d="M9.89987 0C7.91443 0 6.2998 1.61462 6.2998 3.59996C6.2998 5.58541 7.91443 7.19993 9.89977 7.19993C11.8852 7.19993 13.4997 5.58531 13.4997 3.59996C13.4998 1.61462 11.8852 0 9.89987 0ZM9.89987 5.4C8.9072 5.4 8.09984 4.59274 8.09984 3.59996C8.09984 2.60729 8.9071 1.79993 9.89987 1.79993C10.8925 1.79993 11.6999 2.60719 11.6999 3.59996C11.6998 4.59274 10.8925 5.4 9.89987 5.4Z" fill="black"/>
<path d="M9.89996 5.40002C9.40321 5.40002 9 5.80228 9 6.29999V12.6C9 13.0977 9.40321 13.4999 9.89996 13.4999C10.3967 13.4999 10.7999 13.0977 10.7999 12.6V6.29999C10.7999 5.80228 10.3967 5.40002 9.89996 5.40002Z" fill="black"/>
</g>
<defs>
<clipPath id="clip0_655_123">
<rect width="54" height="54" fill="white"/>
</clipPath>
</defs>
</svg>
