<svg width="64" height="64" viewBox="0 0 64 64" fill="none" xmlns="http://www.w3.org/2000/svg">
<g clip-path="url(#clip0_653_767)">
<path d="M17.3439 49.78C17.7422 49.4564 18.0934 49.0777 18.3869 48.6557C22.2177 51.8089 27.0059 53.5337 31.9997 53.5337C37.7075 53.5337 43.0789 51.3161 47.1239 47.2894C51.1677 43.2641 53.41 37.9057 53.4378 32.2014C53.4405 31.6836 53.0227 31.2619 52.5048 31.2594C52.5032 31.2594 52.5018 31.2594 52.5002 31.2594C51.9846 31.2594 51.5654 31.6761 51.5628 32.1923C51.5396 36.9587 49.8209 41.4597 46.6983 45.0052H42.3044C40.928 45.0052 39.8081 43.8855 39.8081 42.509V42.454C39.8081 41.0776 40.928 39.9578 42.3044 39.9578H44.563C46.9739 39.9578 48.9354 37.9958 48.9354 35.5842V35.5292C48.9354 33.1189 46.9739 31.158 44.563 31.158H44.093C42.7166 31.158 41.5969 30.0383 41.5969 28.6619V28.6069C41.5969 26.196 39.6354 24.2345 37.2245 24.2345C36.5583 24.2345 35.9313 23.9742 35.4581 23.501C34.9868 23.0305 34.7272 22.4041 34.7272 21.7371V21.6821C34.7272 20.3057 35.8476 19.1858 37.2246 19.1858H43.626C43.6769 19.6751 43.8583 20.1486 44.1635 20.5634C44.7016 21.2942 45.5638 21.7306 46.4698 21.7306H48.5937C49.8151 23.6807 50.6731 25.8069 51.1454 28.0581C51.2381 28.5 51.6277 28.8032 52.062 28.8032C52.1258 28.8032 52.1905 28.7967 52.2555 28.7831C52.7622 28.6767 53.0867 28.1797 52.9805 27.6731C52.5418 25.5822 51.7988 23.5903 50.7686 21.7306H58.5389C59.4573 21.7306 60.2944 21.3054 60.8356 20.5643C61.3814 19.8169 61.5323 18.8809 61.2495 17.9963C60.3954 15.3234 58.4155 13.2663 55.9289 12.2721C57.1567 11.2741 57.9431 9.75297 57.9431 8.05109C57.9431 5.05244 55.5035 2.61279 52.5048 2.61279C49.5062 2.61279 47.0665 5.05231 47.0665 8.05109C47.0665 9.75222 47.8522 11.2729 49.0792 12.2709C47.5472 12.8824 46.2097 13.897 45.2085 15.2116C41.4497 12.2679 36.8002 10.6572 31.9997 10.6572C26.0184 10.6572 20.2702 13.181 16.2217 17.5833C16.2114 17.5935 16.2013 17.604 16.1915 17.6148C12.561 21.5751 10.5616 26.7177 10.5616 32.0954C10.5616 34.9837 11.1213 37.7689 12.2263 40.392C10.0549 41.1058 8.48211 43.1514 8.48211 45.5586C8.48211 47.2599 9.26787 48.7805 10.4949 49.7785C7.98548 50.7798 5.99659 52.8628 5.15384 55.5717C4.88683 56.4308 5.04196 57.342 5.57921 58.0715C6.11747 58.8022 6.97947 59.2385 7.88536 59.2385H16.2339C16.7517 59.2385 17.1714 58.8187 17.1714 58.301C17.1714 57.7832 16.7518 57.3635 16.2339 57.3635H7.88536C7.56823 57.3635 7.27798 57.2162 7.08898 56.9596C6.90885 56.7151 6.8561 56.4118 6.94422 56.1282C7.89898 53.0593 10.7025 50.9974 13.9203 50.9974C17.1119 50.9974 19.9087 53.0381 20.8796 56.0755C21.0622 56.6463 20.7226 57.1491 20.2887 57.3052C19.9168 57.4391 19.6688 57.792 19.6688 58.1872V58.1885C19.6688 58.7062 20.0885 59.1254 20.6063 59.1254C20.7338 59.1254 20.8552 59.0999 20.966 59.0539C22.3878 58.5172 23.1335 56.9672 22.6655 55.5045C21.811 52.8314 19.8308 50.7742 17.3439 49.78ZM48.9414 8.05096C48.9414 6.08619 50.5399 4.48768 52.5048 4.48768C54.4697 4.48768 56.0682 6.08619 56.0682 8.05096C56.0682 10.0159 54.4697 11.6144 52.5048 11.6144C50.5399 11.6142 48.9414 10.0157 48.9414 8.05096ZM52.5048 13.4893C55.6964 13.4893 58.4929 15.5299 59.4635 18.567C59.5619 18.875 59.5101 19.2 59.3213 19.4587C59.137 19.7109 58.8518 19.8557 58.5386 19.8557H46.4698C46.1527 19.8557 45.8624 19.7086 45.6735 19.4519C45.4936 19.2076 45.441 18.9047 45.5293 18.6209C46.4839 15.5514 49.2872 13.4893 52.5048 13.4893ZM44.2254 16.8249C44.1495 16.9843 44.0771 17.1459 44.0099 17.3108H37.2246C34.8137 17.3108 32.8523 19.2717 32.8523 21.6819V21.7369C32.8523 22.9055 33.3074 24.0032 34.1331 24.8272C34.9598 25.654 36.0577 26.1092 37.2247 26.1092C38.6018 26.1092 39.7222 27.2296 39.7222 28.6066V28.6616C39.7222 31.0719 41.6831 33.0328 44.0934 33.0328H44.5634C45.9405 33.0328 47.0609 34.1525 47.0609 35.5291V35.5841C47.0609 36.9618 45.9405 38.0828 44.5634 38.0828H42.3048C39.8944 38.0828 37.9336 40.0437 37.9336 42.454V42.509C37.9336 44.9193 39.8945 46.8801 42.3048 46.8801H44.8116C41.2552 49.9708 36.756 51.6588 31.9999 51.6588C27.2749 51.6588 22.7515 49.967 19.1948 46.8841C19.1952 46.8825 19.1956 46.8808 19.1959 46.879C21.5895 46.8536 23.5289 44.8997 23.5289 42.5004V42.4616C23.5289 41.0811 24.6525 39.958 26.0336 39.958H28.1898C30.6049 39.958 32.5697 37.9932 32.5697 35.5781V35.5381C32.5697 33.1229 30.6049 31.1581 28.1898 31.1581H21.2625C19.8813 31.1581 18.7576 30.0345 18.7576 28.6532V28.6132C18.7576 27.2327 19.8813 26.1096 21.2625 26.1096C22.4326 26.1096 23.5327 25.6539 24.361 24.8256C25.1872 23.9976 25.6424 22.8982 25.6424 21.7297V21.6909C25.6424 19.2758 23.6776 17.311 21.2625 17.311H19.1934C22.7286 14.2528 27.2844 12.5324 31.9997 12.5324C36.4543 12.5321 40.7662 14.052 44.2254 16.8249ZM17.3019 19.1857H21.2625C22.6436 19.1857 23.7674 20.3093 23.7674 21.6906V21.7293C23.7674 22.3976 23.5069 23.0268 23.0345 23.5001C22.5611 23.9735 21.9317 24.2342 21.2625 24.2342C18.8473 24.2342 16.8826 26.1985 16.8826 28.6129V28.6529C16.8826 31.0679 18.8473 33.0327 21.2625 33.0327H28.1898C29.5709 33.0327 30.6947 34.1563 30.6947 35.5376V35.5776C30.6947 36.9588 29.5709 38.0824 28.1898 38.0824H26.0336C23.6186 38.0824 21.6538 40.0467 21.6538 42.4611V42.4999C21.6538 43.8201 20.6265 44.9024 19.3297 44.9956C19.0552 42.3374 16.8578 40.242 14.1562 40.126C13.0151 37.5998 12.4366 34.9012 12.4366 32.095C12.4365 27.3244 14.1617 22.7566 17.3019 19.1857ZM13.9204 41.9952C15.8853 41.9952 17.4838 43.5937 17.4838 45.5585C17.4838 47.5234 15.8853 49.1219 13.9204 49.1219C11.9555 49.1219 10.357 47.5234 10.357 45.5585C10.357 43.5937 11.9555 41.9952 13.9204 41.9952Z" fill="black"/>
<path d="M63.8654 39.9227L61.3847 33.4088C61.1256 32.7284 60.5418 32.2531 59.823 32.1373C59.104 32.0218 58.4008 32.2894 57.941 32.8538L53.5395 38.2583C53.0796 38.8228 52.9599 39.5662 53.219 40.2467C53.478 40.9271 54.0617 41.4026 54.7806 41.5183L55.2198 41.5891C53.5335 45.6395 50.7402 49.2871 47.2667 51.9498C42.8544 55.3321 37.5752 57.1197 31.9998 57.1197C30.4968 57.1197 29.2739 58.3425 29.2739 59.8456C29.2739 61.3486 30.4968 62.5714 31.9998 62.5714C38.785 62.5714 45.2112 60.3946 50.5833 56.2764C55.161 52.7674 58.7398 47.8904 60.7249 42.4762L61.6632 42.6275C62.3814 42.7433 63.0854 42.4756 63.5452 41.911C64.0048 41.3465 64.1246 40.6031 63.8654 39.9227ZM62.0912 40.7271C62.0406 40.7892 61.9809 40.7796 61.9613 40.7766L60.2494 40.5007C59.7963 40.4279 59.3578 40.6928 59.2118 41.1273C57.4076 46.4909 53.9381 51.3425 49.4426 54.7886C44.4005 58.6536 38.3689 60.6966 31.9997 60.6966C31.5304 60.6966 31.1488 60.3149 31.1488 59.8457C31.1488 59.3765 31.5306 58.9948 31.9997 58.9948C37.9912 58.9948 43.6649 57.0733 48.4072 53.4381C52.4621 50.3298 55.6541 45.9721 57.3951 41.1676C57.4904 40.9051 57.4635 40.6137 57.3219 40.3729C57.1803 40.1322 56.9388 39.9672 56.663 39.9227L55.079 39.6674C55.0595 39.6643 54.9999 39.6547 54.9714 39.5797C54.9428 39.5047 54.9809 39.4578 54.9935 39.4424L59.395 34.0379C59.406 34.0243 59.4372 33.9861 59.4987 33.9861C59.5068 33.9861 59.5157 33.9869 59.5249 33.9884C59.6042 34.0011 59.6257 34.0576 59.6327 34.0761L62.1134 40.59C62.1204 40.6085 62.1419 40.6648 62.0912 40.7271Z" fill="black"/>
<path d="M6.05882 31.1473L10.4597 25.7428C10.92 25.1781 11.0399 24.4345 10.7805 23.7538C10.5212 23.073 9.93698 22.5978 9.21822 22.4824L8.77972 22.4119C10.4667 18.3608 13.26 14.7133 16.733 12.0512C21.1457 8.66877 26.4247 6.881 31.9998 6.881C33.5029 6.881 34.7259 5.65799 34.7259 4.15486C34.7259 2.6516 33.5029 1.42871 31.9998 1.42871C25.2145 1.42871 18.7882 3.60573 13.4161 7.72451C11.0327 9.55115 8.92822 11.7263 7.16133 14.1893C6.85945 14.6101 6.95596 15.1957 7.37658 15.4976C7.79721 15.7992 8.38297 15.7031 8.68472 15.2822C10.3441 12.9692 12.3197 10.927 14.557 9.21252C19.5991 5.34687 25.6306 3.3036 31.9999 3.3036C32.4693 3.3036 32.851 3.68548 32.851 4.15486C32.851 4.62424 32.4692 5.00611 31.9999 5.00611C26.0089 5.00611 20.3353 6.92775 15.5925 10.5632C11.4795 13.7159 8.37134 17.959 6.6042 22.8336C6.50895 23.0963 6.53583 23.3876 6.67745 23.6285C6.8192 23.8693 7.06071 24.0343 7.33646 24.0788L8.92072 24.3338C8.94022 24.3369 8.99985 24.3465 9.02835 24.4214C9.05697 24.4963 9.01872 24.543 9.00597 24.5588L4.60506 29.9632C4.59244 29.9787 4.55281 30.0249 4.47481 30.0129C4.39531 30.0001 4.37368 29.9432 4.36656 29.9246L1.88667 23.411C1.87954 23.3924 1.85804 23.3356 1.90867 23.2733C1.95904 23.2111 2.01854 23.2206 2.03754 23.2238L3.75006 23.5C4.20293 23.5731 4.64181 23.3079 4.78794 22.8733C5.24719 21.5074 5.8182 20.1615 6.48545 18.8732C6.72345 18.4135 6.54383 17.8477 6.08407 17.6096C5.62432 17.3716 5.05857 17.5511 4.82044 18.011C4.23193 19.1474 3.71356 20.326 3.27468 21.5241L2.33542 21.3726C1.61654 21.2575 0.913533 21.5255 0.45453 22.0899C-0.00497411 22.6544 -0.1246 23.3976 0.134652 24.0781L2.61455 30.5917C2.87355 31.2723 3.45743 31.7478 4.17606 31.864C4.28681 31.8818 4.39694 31.8906 4.50606 31.8906C5.10557 31.8903 5.6692 31.6252 6.05882 31.1473Z" fill="black"/>
</g>
<defs>
<clipPath id="clip0_653_767">
<rect width="64" height="64" fill="white"/>
</clipPath>
</defs>
</svg>
