<svg width="59" height="65" viewBox="0 0 59 65" fill="none" xmlns="http://www.w3.org/2000/svg">
<path fill-rule="evenodd" clip-rule="evenodd" d="M19.7406 60.6577C14.1069 59.068 8.2087 58.266 2.48703 57.5313C1.25467 57.3773 0.110503 58.2368 0.022477 59.4477C-0.153574 60.6595 0.727199 61.7677 1.87153 61.9217C7.41715 62.6289 13.1383 63.3857 18.5079 64.9162C19.6522 65.2481 20.8851 64.5648 21.2372 63.3893C21.5893 62.2147 20.8849 60.9905 19.7406 60.6577Z" fill="#E03C33"/>
<path fill-rule="evenodd" clip-rule="evenodd" d="M36.8166 38.119C27.75 28.8151 17.539 20.7089 8.64839 11.1554C7.85615 10.2632 6.44774 10.2154 5.56749 11.0483C4.68723 11.8821 4.59955 13.2842 5.4798 14.1764C14.3704 23.7574 24.5814 31.8902 33.648 41.2215C34.5283 42.0925 35.9364 42.1049 36.8166 41.248C37.6089 40.3921 37.6969 38.99 36.8166 38.119Z" fill="#E03C33"/>
<path fill-rule="evenodd" clip-rule="evenodd" d="M53.8068 2.33306C54.0709 7.65815 54.3345 12.9832 54.5986 18.3092C54.5986 19.529 55.6554 20.4708 56.8877 20.4115C58.1201 20.3513 58.9998 19.313 58.9998 18.0924C58.7358 12.7584 58.4722 7.42535 58.2081 2.09229C58.1201 0.872548 57.0636 -0.0630613 55.8313 0.00332538C54.6869 0.069712 53.7188 1.1142 53.8068 2.33306Z" fill="#E03C33"/>
</svg>
