<svg width="64" height="64" viewBox="0 0 64 64" fill="none" xmlns="http://www.w3.org/2000/svg">
<g clip-path="url(#clip0_653_774)">
<path d="M55.7074 15.4775C56.3069 15.4775 56.8849 15.2396 57.3113 14.8131L63.5947 8.52963C64.4344 7.69001 63.8876 6.24901 62.7046 6.17476L59.3609 5.96489L61.5427 3.78302C61.9089 3.41689 61.9089 2.82327 61.5427 2.45727C61.1765 2.09115 60.583 2.09115 60.2169 2.45727L58.035 4.63914L57.8251 1.2954C57.7508 0.110276 56.3084 -0.432722 55.4703 0.405276L49.1866 6.68876C48.7265 7.14889 48.4862 7.78526 48.5269 8.43464L48.7429 11.8756C43.4987 7.40414 36.7398 4.83989 29.5801 4.83989C13.2313 4.83989 0 18.0696 0 34.4198C0 41.7987 2.73249 48.8661 7.69436 54.3198C8.04298 54.7027 8.63586 54.7307 9.01873 54.3823C9.40173 54.0338 9.42973 53.4409 9.08136 53.0579C4.43424 47.9502 1.875 41.3311 1.875 34.4198C1.875 19.1432 14.3035 6.71476 29.5801 6.71476C36.7391 6.71476 43.4755 9.45851 48.5144 14.1596L44.2367 18.4372C40.368 14.8861 35.2172 12.713 29.5801 12.713C17.611 12.713 7.87336 22.4506 7.87336 34.4197C7.87336 37.8645 8.70436 41.2956 10.2769 44.3423C10.277 44.3424 10.277 44.3426 10.2771 44.3427C13.9207 51.4028 21.2588 56.1264 29.5802 56.1264C39.8338 56.1264 48.7516 48.8841 50.8359 38.8332C50.941 38.3262 50.6153 37.83 50.1083 37.7248C49.6014 37.6197 49.1052 37.9454 49 38.4524C47.1015 47.6069 38.9344 54.2514 29.5803 54.2514C22.1292 54.2514 15.371 50.1251 11.9434 43.4828C11.9434 43.4827 11.9432 43.4826 11.9432 43.4824C10.487 40.6606 9.74848 37.6115 9.74848 34.4197C9.74848 23.4845 18.645 14.588 29.5802 14.588C34.7014 14.588 39.3837 16.5507 42.9113 19.7626L38.6717 24.0022C36.2387 21.8762 33.0574 20.5862 29.5802 20.5862C21.9525 20.5862 15.7468 26.7918 15.7468 34.4196C15.7468 42.0473 21.9525 48.2529 29.5802 48.2529C37.2079 48.2529 43.4137 42.0473 43.4137 34.4196C43.4137 30.9423 42.1237 27.7611 39.9975 25.3281L44.2374 21.0882C47.4244 24.5875 49.3825 29.2245 49.4115 34.3042C49.4144 34.8201 49.8336 35.2363 50.3489 35.2363H50.3544C50.8721 35.2333 51.2894 34.8112 51.2865 34.2935C51.2545 28.7016 49.0869 23.6 45.5633 19.7622L49.8413 15.4842C54.5221 20.4891 57.2851 27.1856 57.2851 34.4195C57.285 49.6964 44.8567 62.1249 29.5801 62.1249C23.2515 62.1249 17.0632 59.9357 12.1553 55.9605C11.7527 55.6348 11.1629 55.6967 10.8367 56.0989C10.5109 56.5013 10.5729 57.0917 10.9751 57.4175C16.2158 61.6623 22.8232 63.9999 29.5801 63.9999C45.9288 63.9999 59.1601 50.7702 59.1601 34.4198C59.1601 28.0182 57.1484 21.9256 53.3426 16.8009C52.9486 16.2702 52.5383 15.7559 52.1141 15.2562C55.7893 15.4871 55.5911 15.4775 55.7074 15.4775ZM41.5385 34.4198C41.5385 41.0137 36.1741 46.3782 29.5801 46.3782C22.9862 46.3782 17.6217 41.0137 17.6217 34.4198C17.6217 27.826 22.9862 22.4615 29.5801 22.4615C32.5403 22.4615 35.2523 23.5431 37.3428 25.3312L33.0766 29.5975C32.0936 28.8828 30.8856 28.4597 29.5801 28.4597C26.2937 28.4597 23.62 31.1335 23.62 34.4198C23.62 37.7062 26.2937 40.3799 29.5801 40.3799C32.8666 40.3799 35.5403 37.7062 35.5403 34.4198C35.5403 33.1142 35.1172 31.9062 34.4026 30.9233L38.6688 26.6571C40.4568 28.7476 41.5385 31.4596 41.5385 34.4198ZM28.9171 35.0828C29.2833 35.449 29.8768 35.449 30.2429 35.0828L33.0532 32.2726C33.4407 32.897 33.6652 33.6326 33.6652 34.42C33.6652 36.6726 31.8326 38.5051 29.5799 38.5051C27.3273 38.5051 25.4948 36.6725 25.4948 34.42C25.4948 32.1675 27.3273 30.3348 29.5799 30.3348C30.3673 30.3348 31.1029 30.5593 31.7273 30.9467L28.9169 33.7571C28.5509 34.1231 28.5509 34.7167 28.9171 35.0828ZM50.3983 8.31714C50.3911 8.20451 50.4329 8.09414 50.5126 8.01451L56.0224 2.5049L56.2673 6.40689L50.632 12.0421L50.3983 8.31714ZM51.9579 13.3679L57.5931 7.73264L61.4951 7.97751L55.9854 13.4873C55.9058 13.567 55.7945 13.6094 55.6828 13.6016L51.9579 13.3679Z" fill="black"/>
</g>
<defs>
<clipPath id="clip0_653_774">
<rect width="64" height="64" fill="white"/>
</clipPath>
</defs>
</svg>
