<svg width="185" height="186" viewBox="0 0 185 186" fill="none" xmlns="http://www.w3.org/2000/svg">
<path d="M119 186L0 67H119V186Z" fill="#EDE4E0"/>
<path d="M180.913 8.17416C178.661 8.17416 176.826 6.33915 176.826 4.08709C176.826 1.83502 178.661 0 180.913 0C183.165 0 185 1.83502 185 4.08709C185 6.35305 183.165 8.17416 180.913 8.17416ZM185 28.5401C185 26.288 183.165 24.453 180.913 24.453C178.661 24.453 176.826 26.288 176.826 28.5401C176.826 30.7921 178.661 32.6271 180.913 32.6271C183.165 32.6271 185 30.806 185 28.5401ZM185 52.9931C185 50.741 183.165 48.906 180.913 48.906C178.661 48.906 176.826 50.741 176.826 52.9931C176.826 55.2451 178.661 57.0801 180.913 57.0801C183.165 57.094 185 55.259 185 52.9931ZM185 77.4599C185 75.2079 183.165 73.3728 180.913 73.3728C178.661 73.3728 176.826 75.2079 176.826 77.4599C176.826 79.712 178.661 81.547 180.913 81.547C183.165 81.547 185 79.712 185 77.4599ZM185 101.913C185 99.6608 183.165 97.8258 180.913 97.8258C178.661 97.8258 176.826 99.6608 176.826 101.913C176.826 104.165 178.661 106 180.913 106C183.165 106 185 104.165 185 101.913ZM160.547 4.08709C160.547 1.83502 158.712 0 156.46 0C154.208 0 152.373 1.83502 152.373 4.08709C152.373 6.33915 154.208 8.17416 156.46 8.17416C158.712 8.17416 160.547 6.35305 160.547 4.08709ZM160.547 28.5401C160.547 26.288 158.712 24.453 156.46 24.453C154.208 24.453 152.373 26.288 152.373 28.5401C152.373 30.7921 154.208 32.6271 156.46 32.6271C158.712 32.6271 160.547 30.806 160.547 28.5401ZM160.547 52.9931C160.547 50.741 158.712 48.906 156.46 48.906C154.208 48.906 152.373 50.741 152.373 52.9931C152.373 55.2451 154.208 57.0801 156.46 57.0801C158.712 57.094 160.547 55.259 160.547 52.9931ZM160.547 77.4599C160.547 75.2079 158.712 73.3728 156.46 73.3728C154.208 73.3728 152.373 75.2079 152.373 77.4599C152.373 79.712 154.208 81.547 156.46 81.547C158.712 81.547 160.547 79.712 160.547 77.4599ZM160.547 101.913C160.547 99.6608 158.712 97.8258 156.46 97.8258C154.208 97.8258 152.373 99.6608 152.373 101.913C152.373 104.165 154.208 106 156.46 106C158.712 106 160.547 104.165 160.547 101.913ZM136.08 4.08709C136.08 1.83502 134.245 0 131.993 0C129.741 0 127.906 1.83502 127.906 4.08709C127.906 6.33915 129.741 8.17416 131.993 8.17416C134.259 8.17416 136.08 6.35305 136.08 4.08709ZM136.08 28.5401C136.08 26.288 134.245 24.453 131.993 24.453C129.741 24.453 127.906 26.288 127.906 28.5401C127.906 30.7921 129.741 32.6271 131.993 32.6271C134.259 32.6271 136.08 30.806 136.08 28.5401ZM136.08 52.9931C136.08 50.741 134.245 48.906 131.993 48.906C129.741 48.906 127.906 50.741 127.906 52.9931C127.906 55.2451 129.741 57.0801 131.993 57.0801C134.259 57.094 136.08 55.259 136.08 52.9931ZM136.08 77.4599C136.08 75.2079 134.245 73.3728 131.993 73.3728C129.741 73.3728 127.906 75.2079 127.906 77.4599C127.906 79.712 129.741 81.547 131.993 81.547C134.259 81.547 136.08 79.712 136.08 77.4599ZM136.08 101.913C136.08 99.6608 134.245 97.8258 131.993 97.8258C129.741 97.8258 127.906 99.6608 127.906 101.913C127.906 104.165 129.741 106 131.993 106C134.259 106 136.08 104.165 136.08 101.913ZM111.627 4.08709C111.627 1.83502 109.792 0 107.54 0C105.288 0 103.453 1.83502 103.453 4.08709C103.453 6.33915 105.288 8.17416 107.54 8.17416C109.806 8.17416 111.627 6.35305 111.627 4.08709ZM111.627 28.5401C111.627 26.288 109.792 24.453 107.54 24.453C105.288 24.453 103.453 26.288 103.453 28.5401C103.453 30.7921 105.288 32.6271 107.54 32.6271C109.806 32.6271 111.627 30.806 111.627 28.5401ZM111.627 52.9931C111.627 50.741 109.792 48.906 107.54 48.906C105.288 48.906 103.453 50.741 103.453 52.9931C103.453 55.2451 105.288 57.0801 107.54 57.0801C109.806 57.094 111.627 55.259 111.627 52.9931ZM111.627 77.4599C111.627 75.2079 109.792 73.3728 107.54 73.3728C105.288 73.3728 103.453 75.2079 103.453 77.4599C103.453 79.712 105.288 81.547 107.54 81.547C109.806 81.547 111.627 79.712 111.627 77.4599ZM111.627 101.913C111.627 99.6608 109.792 97.8258 107.54 97.8258C105.288 97.8258 103.453 99.6608 103.453 101.913C103.453 104.165 105.288 106 107.54 106C109.806 106 111.627 104.165 111.627 101.913ZM87.1742 4.08709C87.1742 1.83502 85.3392 0 83.0871 0C80.835 0 79 1.83502 79 4.08709C79 6.33915 80.835 8.17416 83.0871 8.17416C85.3392 8.17416 87.1742 6.35305 87.1742 4.08709ZM87.1742 28.5401C87.1742 26.288 85.3392 24.453 83.0871 24.453C80.835 24.453 79 26.288 79 28.5401C79 30.7921 80.835 32.6271 83.0871 32.6271C85.3392 32.6271 87.1742 30.806 87.1742 28.5401ZM87.1742 52.9931C87.1742 50.741 85.3392 48.906 83.0871 48.906C80.835 48.906 79 50.741 79 52.9931C79 55.2451 80.835 57.0801 83.0871 57.0801C85.3392 57.0801 87.1742 55.259 87.1742 52.9931ZM87.1742 77.4599C87.1742 75.2079 85.3392 73.3728 83.0871 73.3728C80.835 73.3728 79 75.2079 79 77.4599C79 79.712 80.835 81.547 83.0871 81.547C85.3392 81.547 87.1742 79.712 87.1742 77.4599ZM87.1742 101.913C87.1742 99.6608 85.3392 97.8258 83.0871 97.8258C80.835 97.8258 79 99.6608 79 101.913C79 104.165 80.835 106 83.0871 106C85.3392 106 87.1742 104.165 87.1742 101.913Z" fill="#C4CDDC"/>
</svg>
