<svg width="18" height="18" viewBox="0 0 18 18" fill="none" xmlns="http://www.w3.org/2000/svg">
<path d="M9 0C4.02938 0 0 4.02938 0 9C0 13.9706 4.02938 18 9 18C13.9706 18 18 13.9706 18 9C18 4.02938 13.9706 0 9 0ZM12.6609 7.3725C12.6647 7.44937 12.6656 7.52625 12.6656 7.60125C12.6656 9.945 10.8834 12.6459 7.62281 12.6459C6.65934 12.6475 5.71591 12.3708 4.90594 11.8491C5.04375 11.8659 5.18531 11.8725 5.32875 11.8725C6.15937 11.8725 6.92344 11.5903 7.53 11.1141C7.16036 11.1068 6.80219 10.9844 6.50542 10.7639C6.20864 10.5434 5.98805 10.2359 5.87437 9.88406C6.13983 9.93454 6.4133 9.92396 6.67406 9.85312C6.27286 9.772 5.91206 9.5546 5.65285 9.23781C5.39364 8.92102 5.25198 8.52432 5.25187 8.115V8.09344C5.49094 8.22563 5.76469 8.30625 6.05531 8.31563C5.67919 8.06524 5.41292 7.68063 5.31098 7.24044C5.20903 6.80024 5.27911 6.33774 5.50687 5.9475C5.95215 6.495 6.50743 6.94289 7.13678 7.26217C7.76613 7.58144 8.45552 7.765 9.16031 7.80094C9.07071 7.4206 9.10927 7.02132 9.27001 6.66516C9.43074 6.309 9.70465 6.01593 10.0491 5.8315C10.3936 5.64707 10.7894 5.58161 11.1749 5.64532C11.5604 5.70902 11.9141 5.89831 12.1809 6.18375C12.5777 6.10526 12.9581 5.95974 13.3059 5.75344C13.1737 6.16419 12.8969 6.51298 12.5269 6.735C12.8783 6.69267 13.2214 6.5982 13.545 6.45469C13.3073 6.81084 13.0079 7.12166 12.6609 7.3725Z" fill="white"/>
</svg>
